<svg width="20" height="22" viewBox="0 0 20 22" fill="none" xmlns="http://www.w3.org/2000/svg">
<path d="M-0.00146484 4.58321C-0.00146484 4.07697 0.378443 3.66658 0.847085 3.66658L3.77767 3.66609C4.35994 3.65015 4.87362 3.25021 5.07175 2.65853C5.07696 2.64297 5.08295 2.62378 5.10443 2.55416L5.23071 2.14486C5.30798 1.89392 5.3753 1.67529 5.46951 1.47986C5.84167 0.70782 6.53024 0.171706 7.32595 0.0344517C7.52735 -0.000296379 7.74065 -0.000142459 7.98552 2.25361e-05H11.8112C12.0561 -0.000142459 12.2694 -0.000296379 12.4708 0.0344517C13.2665 0.171706 13.9551 0.70782 14.3272 1.47986C14.4214 1.67529 14.4888 1.89392 14.566 2.14486L14.6923 2.55416C14.7138 2.62378 14.7198 2.64297 14.7249 2.65853C14.9231 3.25021 15.5387 3.65065 16.1209 3.66658H18.9495C19.4181 3.66658 19.798 4.07697 19.798 4.58321C19.798 5.08946 19.4181 5.49985 18.9495 5.49985H0.847085C0.378443 5.49985 -0.00146484 5.08946 -0.00146484 4.58321Z" fill="#7B8FCB"/>
<path d="M9.74053 22.0002H10.6061C13.5843 22.0002 15.0733 22.0002 16.0415 21.0507C17.0097 20.1012 17.1088 18.5438 17.3069 15.4288L17.5923 10.9402C17.6998 9.25013 17.7536 8.40502 17.2678 7.8695C16.7821 7.33398 15.962 7.33398 14.3215 7.33398H6.02511C4.38468 7.33398 3.56447 7.33398 3.07875 7.8695C2.59305 8.40502 2.64679 9.25013 2.75428 10.9402L3.03974 15.4288C3.23784 18.5438 3.33689 20.1012 4.30508 21.0507C5.27326 22.0002 6.76233 22.0002 9.74053 22.0002Z" fill="#7B8FCB"/>
</svg>
