<svg width="19" height="19" viewBox="0 0 19 19" fill="none" xmlns="http://www.w3.org/2000/svg">
<path d="M18.4282 3.28816L15.7103 0.570193C15.5311 0.389518 15.3179 0.246112 15.083 0.148249C14.8481 0.0503851 14.5961 0 14.3416 0C14.0872 0 13.8352 0.0503851 13.6003 0.148249C13.3654 0.246112 13.1522 0.389518 12.973 0.570193L10.1972 3.34599C10.1069 3.43559 10.0352 3.54219 9.98623 3.65964C9.9373 3.77709 9.91211 3.90307 9.91211 4.0303C9.91211 4.15754 9.9373 4.28352 9.98623 4.40097C10.0352 4.51842 10.1069 4.62502 10.1972 4.71462L14.2838 8.80121C14.3734 8.89155 14.48 8.96325 14.5975 9.01218C14.7149 9.06112 14.8409 9.08631 14.9681 9.08631C15.0953 9.08631 15.2213 9.06112 15.3388 9.01218C15.4562 8.96325 15.5628 8.89155 15.6524 8.80121L18.4282 6.02541C18.6089 5.84621 18.7523 5.63301 18.8502 5.39811C18.948 5.16321 18.9984 4.91126 18.9984 4.65679C18.9984 4.40232 18.948 4.15036 18.8502 3.91546C18.7523 3.68056 18.6089 3.46736 18.4282 3.28816Z" fill="#7B8FCB"/>
<path d="M12.9345 10.1529L8.84788 6.06635C8.75828 5.97601 8.65168 5.90431 8.53423 5.85537C8.41678 5.80644 8.2908 5.78125 8.16357 5.78125C8.03633 5.78125 7.91036 5.80644 7.79291 5.85537C7.67546 5.90431 7.56886 5.97601 7.47926 6.06635L0.279524 13.2661C0.190196 13.3561 0.119523 13.4629 0.0715592 13.5804C0.0235951 13.6978 -0.000717254 13.8235 1.61096e-05 13.9504V18.037C1.61096e-05 18.2926 0.101561 18.5378 0.282312 18.7185C0.463063 18.8993 0.708215 19.0008 0.963836 19.0008H5.05043C5.1853 19.0081 5.3202 18.987 5.44639 18.9389C5.57258 18.8907 5.68724 18.8166 5.78293 18.7213L12.9827 11.5216C13.0699 11.4288 13.1379 11.3197 13.1828 11.2005C13.2276 11.0813 13.2484 10.9545 13.2439 10.8272C13.2394 10.6999 13.2098 10.5748 13.1567 10.4591C13.1036 10.3434 13.028 10.2393 12.9345 10.1529Z" fill="#7B8FCB"/>
</svg>
