<svg width="22" height="22" viewBox="0 0 22 22" fill="none" xmlns="http://www.w3.org/2000/svg">
<path d="M11.0011 7.7C10.1259 7.7 9.28652 8.04768 8.66765 8.66655C8.04878 9.28542 7.7011 10.1248 7.7011 11C7.7011 11.8752 8.04878 12.7146 8.66765 13.3335C9.28652 13.9523 10.1259 14.3 11.0011 14.3C11.8763 14.3 12.7157 13.9523 13.3346 13.3335C13.9534 12.7146 14.3011 11.8752 14.3011 11C14.3011 10.1248 13.9534 9.28542 13.3346 8.66655C12.7157 8.04768 11.8763 7.7 11.0011 7.7ZM11.0011 5.5C12.4598 5.5 13.8587 6.07946 14.8902 7.11091C15.9216 8.14236 16.5011 9.54131 16.5011 11C16.5011 12.4587 15.9216 13.8576 14.8902 14.8891C13.8587 15.9205 12.4598 16.5 11.0011 16.5C9.54241 16.5 8.14346 15.9205 7.11201 14.8891C6.08056 13.8576 5.5011 12.4587 5.5011 11C5.5011 9.54131 6.08056 8.14236 7.11201 7.11091C8.14346 6.07946 9.54241 5.5 11.0011 5.5ZM18.1511 5.225C18.1511 5.58967 18.0062 5.93941 17.7484 6.19727C17.4905 6.45513 17.1408 6.6 16.7761 6.6C16.4114 6.6 16.0617 6.45513 15.8038 6.19727C15.546 5.93941 15.4011 5.58967 15.4011 5.225C15.4011 4.86033 15.546 4.51059 15.8038 4.25273C16.0617 3.99487 16.4114 3.85 16.7761 3.85C17.1408 3.85 17.4905 3.99487 17.7484 4.25273C18.0062 4.51059 18.1511 4.86033 18.1511 5.225ZM11.0011 2.2C8.2797 2.2 7.8353 2.2077 6.5692 2.2638C5.7068 2.3045 5.1282 2.42 4.5914 2.629C4.14218 2.79393 3.73605 3.05829 3.4034 3.4023C3.05911 3.73494 2.79439 4.14104 2.629 4.5903C2.42 5.1293 2.3045 5.7068 2.2649 6.5681C2.2077 7.7825 2.2 8.2071 2.2 11C2.2 13.7225 2.2077 14.1658 2.2638 15.4319C2.3045 16.2932 2.42 16.8729 2.6279 17.4086C2.8149 17.8871 3.0349 18.2314 3.4001 18.5966C3.7708 18.9662 4.1151 19.1873 4.5881 19.3699C5.1315 19.58 5.7101 19.6966 6.5681 19.7362C7.7825 19.7934 8.2071 19.8 11 19.8C13.7225 19.8 14.1658 19.7923 15.4319 19.7362C16.2921 19.6955 16.8707 19.58 17.4086 19.3721C17.8574 19.2064 18.2634 18.9421 18.5966 18.5988C18.9673 18.2292 19.1884 17.8849 19.371 17.4108C19.58 16.8696 19.6966 16.291 19.7362 15.4308C19.7934 14.2175 19.8 13.7918 19.8 11C19.8 8.2786 19.7923 7.8342 19.7362 6.5681C19.6955 5.7079 19.5789 5.1271 19.371 4.5903C19.2052 4.14152 18.941 3.73558 18.5977 3.4023C18.2652 3.05783 17.8591 2.79308 17.4097 2.6279C16.8707 2.4189 16.2921 2.3034 15.4319 2.2638C14.2186 2.2066 13.794 2.2 11 2.2M11 0C13.9887 0 14.3616 0.0109999 15.5353 0.0659999C16.7057 0.121 17.5043 0.3047 18.205 0.5775C18.931 0.8569 19.5426 1.2353 20.1542 1.8458C20.7135 2.39569 21.1463 3.06085 21.4225 3.795C21.6942 4.4957 21.879 5.2943 21.934 6.4658C21.9857 7.6384 22 8.0113 22 11C22 13.9887 21.989 14.3616 21.934 15.5342C21.879 16.7057 21.6942 17.5032 21.4225 18.205C21.1471 18.9395 20.7142 19.6049 20.1542 20.1542C19.6042 20.7134 18.939 21.1461 18.205 21.4225C17.5043 21.6942 16.7057 21.879 15.5353 21.934C14.3616 21.9857 13.9887 22 11 22C8.0113 22 7.6384 21.989 6.4647 21.934C5.2943 21.879 4.4968 21.6942 3.795 21.4225C3.06056 21.1469 2.39528 20.714 1.8458 20.1542C1.28637 19.6044 0.853556 18.9392 0.5775 18.205C0.3047 17.5043 0.121 16.7057 0.0659999 15.5342C0.0131999 14.3616 0 13.9887 0 11C0 8.0113 0.0109999 7.6384 0.0659999 6.4658C0.121 5.2943 0.3047 4.4968 0.5775 3.795C0.85276 3.0604 1.28568 2.39505 1.8458 1.8458C2.39544 1.28615 3.06067 0.853302 3.795 0.5775C4.4957 0.3047 5.2932 0.121 6.4647 0.0659999C7.6395 0.0142999 8.0124 0 11.0011 0" fill="#7B8FCB"/>
</svg>
