<svg width="23" height="23" viewBox="0 0 23 23" fill="none" xmlns="http://www.w3.org/2000/svg">
<path fill-rule="evenodd" clip-rule="evenodd" d="M21.966 19.3795C21.2756 21.4776 18.5705 22.524 16.6379 22.3495C13.9985 22.111 11.1264 20.711 8.94623 19.1691C5.74162 16.9024 2.7398 13.3963 0.990606 9.67569C-0.24561 7.04668 -0.522972 3.81433 1.31569 1.41795C1.99569 0.532172 2.73085 0.0590966 3.83584 0.00392173C5.36881 -0.0706389 5.58355 0.806346 6.10994 2.1723C6.50213 3.19378 7.02555 4.23576 7.31782 5.29452C7.8651 7.27038 5.95187 7.35296 5.7103 8.96795C5.55968 9.98645 6.79441 11.3523 7.35213 12.0785C8.44518 13.5011 9.75894 14.7282 11.2412 15.6617C12.0897 16.197 13.4601 17.1617 14.4324 16.6293C15.9296 15.8092 15.7879 13.2847 17.8816 14.1391C18.9657 14.5805 20.0155 15.2175 21.0504 15.7752C22.6505 16.6357 22.5759 17.5274 21.966 19.3795C22.4223 17.9957 21.5097 20.7633 21.966 19.3795Z" fill="#7B8FCB"/>
</svg>
