<svg width="18" height="22" viewBox="0 0 18 22" fill="none" xmlns="http://www.w3.org/2000/svg">
<path d="M9.45377 0.018342C10.5846 6.96955e-08 11.7071 0.00953778 12.8289 0C12.8662 1.4901 13.4354 2.83125 14.341 3.82465L14.3396 3.82318C15.3143 4.75569 16.5825 5.36023 17.9807 5.46295L18 5.46442V9.15921C16.6792 9.12399 15.4372 8.80044 14.3175 8.24431L14.3741 8.26926C13.8326 7.99266 13.3746 7.70873 12.9394 7.39178L12.9753 7.41673C12.967 10.0939 12.9836 12.7711 12.9581 15.4387C12.8869 16.7982 12.4614 18.0382 11.7789 19.0734L11.7927 19.0506C10.6516 20.7865 8.80306 21.9259 6.70104 21.9934H6.69137C6.6064 21.9978 6.50624 22 6.40539 22C5.21035 22 4.09337 21.6464 3.14149 21.0323L3.16912 21.0492C1.43666 19.942 0.241626 18.0477 0.0205793 15.8445L0.0178163 15.8144C0.000546956 15.3558 -0.00774237 14.8973 0.00952694 14.4483C0.348005 10.942 3.11386 8.22964 6.47585 8.22964C6.8537 8.22964 7.22395 8.26412 7.58385 8.32942L7.54516 8.32355C7.56243 9.68012 7.51062 11.0374 7.51062 12.394C7.21843 12.2817 6.88133 12.2164 6.52973 12.2164C5.23936 12.2164 4.14173 13.0924 3.73555 14.3155L3.72934 14.3375C3.63746 14.6508 3.58427 15.011 3.58427 15.3837C3.58427 15.5349 3.59325 15.6845 3.60983 15.8313L3.60845 15.8136C3.83779 17.3147 5.0494 18.4475 6.51039 18.4475C6.55252 18.4475 6.59397 18.4468 6.63542 18.4446H6.6292C7.6398 18.4123 8.51708 17.8349 9.01305 16.9817L9.01996 16.9685C9.2044 16.6955 9.33081 16.3654 9.37294 16.0066L9.37364 15.9963C9.45998 14.3551 9.42544 12.7234 9.43373 11.0822C9.44202 7.38738 9.42544 3.70139 9.451 0.0161409L9.45377 0.018342Z" fill="#7B8FCB"/>
</svg>
