<svg width="113" height="39" viewBox="0 0 113 39" fill="none" xmlns="http://www.w3.org/2000/svg">
<path d="M45.5727 15.9458C45.0435 15.4188 44.5777 14.9348 44.1331 14.4293C43.0958 13.2354 42.2384 11.9447 41.6774 10.4496C40.82 8.16936 41.2222 6.08273 42.6195 4.15744C43.2652 3.27546 44.0167 2.49029 44.9482 1.90947C47.0335 0.597264 49.1399 0.618775 51.2041 1.88796C53.1941 3.11413 54.5596 4.91035 55.4805 7.06151C55.544 7.21209 55.6181 7.36268 55.6816 7.51326C55.8086 7.44872 55.8192 7.34116 55.851 7.24436C56.6237 5.32983 57.7034 3.60889 59.1218 2.13535C60.1486 1.07052 61.3553 0.253078 62.8689 0.048717C63.9592 -0.0911087 65.0177 0.0809845 66.0551 0.425171C67.3677 0.855404 68.5638 1.53302 69.527 2.54407C70.5009 3.56587 71.009 4.8243 71.1042 6.24407C71.3054 8.95454 70.2468 11.224 68.6802 13.3106C68.2992 13.8162 67.8652 14.2787 67.4206 14.7304C67.3571 14.7949 67.2301 14.8487 67.2936 14.967C67.3359 15.0531 67.4523 15.0208 67.537 15.0208C69.093 15.0531 70.5856 15.3973 72.004 16.0641C74.1845 17.0967 75.5289 18.8284 75.8993 21.2377C76.3545 24.2386 75.2536 26.6156 72.8508 28.3796C72.1098 28.9281 71.2207 29.1109 70.3421 29.2293C68.2039 29.5089 66.1398 29.2293 64.1709 28.2828C64.0333 28.2182 63.9063 28.1322 63.7687 28.0676C63.6417 28.0139 63.5464 27.8848 63.3559 27.9063C63.43 28.2505 63.4935 28.5839 63.557 28.9281C63.8957 30.7889 63.8428 32.6281 63.3241 34.4566C62.7949 36.3389 61.5458 37.5543 59.831 38.3072C58.3702 38.9418 56.8354 39.1246 55.2476 38.9203C53.1729 38.6621 51.8709 37.3929 51.0029 35.5644C50.2302 33.9188 49.9656 32.1656 50.0609 30.3479C50.0926 29.7993 50.1879 29.2615 50.262 28.7237C50.2726 28.6269 50.3572 28.5194 50.2514 28.4548C50.1667 28.4011 50.0926 28.4979 50.0185 28.5409C48.8859 29.2293 47.6898 29.7348 46.4195 30.0897C45.1599 30.4339 43.8791 30.5845 42.5665 30.4232C41.3916 30.2833 40.4389 29.6918 39.6133 28.8636C38.4489 27.6912 37.6232 26.3144 37.1892 24.7011C36.7447 23.0554 37.1046 21.5496 38.0466 20.1944C39.7085 17.7958 42.0902 16.5912 44.8529 16.0534C45.0646 16.0104 45.2763 15.9888 45.5727 15.9458Z" fill="white"/>
<path d="M5.01577 17.4422C4.70936 17.1371 4.43971 16.8569 4.18232 16.5642C3.58175 15.873 3.08536 15.1258 2.76057 14.2602C2.26417 12.9401 2.49705 11.732 3.30598 10.6174C3.67981 10.1068 4.11491 9.6522 4.6542 9.31593C5.86147 8.55623 7.081 8.56869 8.27601 9.30348C9.42813 10.0134 10.2187 11.0533 10.7518 12.2987C10.7886 12.3859 10.8315 12.4731 10.8683 12.5602C10.9418 12.5229 10.9479 12.4606 10.9663 12.4046C11.4137 11.2961 12.0388 10.2998 12.86 9.4467C13.4544 8.83022 14.153 8.35697 15.0294 8.23865C15.6606 8.1577 16.2734 8.25733 16.874 8.4566C17.6339 8.70568 18.3264 9.09799 18.8841 9.68333C19.4479 10.2749 19.742 11.0035 19.7972 11.8254C19.9136 13.3947 19.3008 14.7086 18.3938 15.9166C18.1732 16.2093 17.9219 16.477 17.6645 16.7386C17.6278 16.7759 17.5542 16.8071 17.591 16.8756C17.6155 16.9254 17.6829 16.9067 17.7319 16.9067C18.6328 16.9254 19.4969 17.1247 20.3181 17.5107C21.5805 18.1085 22.3588 19.1111 22.5733 20.506C22.8368 22.2433 22.1995 23.6195 20.8083 24.6407C20.3794 24.9583 19.8646 25.0642 19.3559 25.1327C18.118 25.2946 16.923 25.1327 15.7831 24.5847C15.7035 24.5473 15.6299 24.4975 15.5503 24.4601C15.4767 24.429 15.4216 24.3543 15.3113 24.3667C15.3542 24.566 15.3909 24.759 15.4277 24.9583C15.6238 26.0356 15.5932 27.1004 15.2929 28.159C14.9865 29.2487 14.2633 29.9524 13.2706 30.3883C12.4249 30.7557 11.5363 30.8615 10.617 30.7432C9.41587 30.5938 8.66209 29.859 8.15958 28.8004C7.71221 27.8477 7.559 26.8326 7.61416 25.7803C7.63254 25.4627 7.6877 25.1513 7.7306 24.84C7.73672 24.7839 7.78575 24.7217 7.72447 24.6843C7.67544 24.6532 7.63254 24.7092 7.58965 24.7341C6.93392 25.1327 6.24143 25.4253 5.50603 25.6308C4.77677 25.8301 4.03525 25.9173 3.27534 25.8239C2.5951 25.7429 2.04356 25.4004 1.56555 24.9209C0.891441 24.2422 0.413435 23.4451 0.162176 22.5111C-0.0952113 21.5583 0.11315 20.6865 0.658567 19.9019C1.62071 18.5133 2.99957 17.8159 4.59905 17.5045C4.72161 17.4796 4.84418 17.4671 5.01577 17.4422Z" fill="white"/>
<path d="M95.3316 17.4422C95.0252 17.1371 94.7555 16.8569 94.4981 16.5642C93.8975 15.873 93.4012 15.1258 93.0764 14.2602C92.58 12.9401 92.8128 11.732 93.6218 10.6174C93.9956 10.1068 94.4307 9.6522 94.97 9.31593C96.1773 8.55623 97.3968 8.56869 98.5918 9.30348C99.7439 10.0134 100.534 11.0533 101.068 12.2987C101.104 12.3859 101.147 12.4731 101.184 12.5602C101.258 12.5229 101.264 12.4606 101.282 12.4046C101.729 11.2961 102.355 10.2998 103.176 9.4467C103.77 8.83022 104.469 8.35697 105.345 8.23865C105.976 8.1577 106.589 8.25733 107.19 8.4566C107.95 8.70568 108.642 9.09799 109.2 9.68333C109.764 10.2749 110.058 11.0035 110.113 11.8254C110.229 13.3947 109.617 14.7086 108.71 15.9166C108.489 16.2093 108.238 16.477 107.98 16.7386C107.944 16.7759 107.87 16.8071 107.907 16.8756C107.931 16.9254 107.999 16.9067 108.048 16.9067C108.949 16.9254 109.813 17.1247 110.634 17.5107C111.896 18.1085 112.675 19.1111 112.889 20.506C113.153 22.2433 112.515 23.6195 111.124 24.6407C110.695 24.9583 110.18 25.0642 109.672 25.1327C108.434 25.2946 107.239 25.1327 106.099 24.5847C106.019 24.5473 105.946 24.4975 105.866 24.4601C105.793 24.429 105.737 24.3543 105.627 24.3667C105.67 24.566 105.707 24.759 105.744 24.9583C105.94 26.0356 105.909 27.1004 105.609 28.159C105.302 29.2487 104.579 29.9524 103.586 30.3883C102.741 30.7557 101.852 30.8615 100.933 30.7432C99.7317 30.5938 98.9779 29.859 98.4754 28.8004C98.028 27.8477 97.8748 26.8326 97.93 25.7803C97.9483 25.4627 98.0035 25.1513 98.0464 24.84C98.0525 24.7839 98.1015 24.7217 98.0403 24.6843C97.9912 24.6532 97.9483 24.7092 97.9054 24.7341C97.2497 25.1327 96.5572 25.4253 95.8218 25.6308C95.0926 25.8301 94.351 25.9173 93.5911 25.8239C92.9109 25.7429 92.3594 25.4004 91.8813 24.9209C91.2072 24.2422 90.7292 23.4451 90.478 22.5111C90.2206 21.5583 90.4289 20.6865 90.9744 19.9019C91.9365 18.5133 93.3154 17.8159 94.9148 17.5045C95.0374 17.4796 95.16 17.4671 95.3316 17.4422Z" fill="white"/>
</svg>
