<svg width="36" height="36" viewBox="0 0 36 36" fill="none" xmlns="http://www.w3.org/2000/svg">
<path d="M7.91329 14.7192C7.42474 14.2327 6.99482 13.7859 6.58444 13.3193C5.62688 12.2173 4.83544 11.0258 4.31757 9.64578C3.52613 7.54095 3.89742 5.61483 5.18719 3.83764C5.78322 3.0235 6.47696 2.29873 7.3368 1.76259C9.26168 0.55132 11.2061 0.571177 13.1114 1.74273C14.9484 2.87458 16.2088 4.53263 17.0589 6.51832C17.1175 6.65732 17.1859 6.79632 17.2446 6.93531C17.3618 6.87574 17.3716 6.77646 17.4009 6.6871C18.1142 4.91984 19.1108 3.33129 20.4201 1.97109C21.3679 0.988173 22.4818 0.23361 23.879 0.0449695C24.8854 -0.0841003 25.8625 0.0747549 26.8201 0.392465C28.0317 0.789603 29.1358 1.4151 30.025 2.34837C30.9239 3.29157 31.3929 4.4532 31.4808 5.76376C31.6665 8.26573 30.6894 10.3606 29.2433 12.2867C28.8915 12.7534 28.4909 13.1803 28.0805 13.5973C28.0219 13.6569 27.9047 13.7065 27.9633 13.8157C28.0024 13.8952 28.1099 13.8654 28.188 13.8654C29.6244 13.8952 31.0021 14.2129 32.3114 14.8284C34.3242 15.7816 35.5651 17.38 35.9071 19.604C36.3272 22.3741 35.3111 24.5682 33.093 26.1965C32.4091 26.7029 31.5883 26.8716 30.7773 26.9809C28.8036 27.239 26.8983 26.9809 25.0809 26.1072C24.9538 26.0476 24.8366 25.9682 24.7096 25.9086C24.5923 25.8589 24.5044 25.7398 24.3285 25.7597C24.3969 26.0774 24.4555 26.3851 24.5141 26.7029C24.8268 28.4205 24.778 30.1182 24.2992 31.8061C23.8106 33.5436 22.6577 34.6655 21.0748 35.3605C19.7264 35.9463 18.3096 36.115 16.8439 35.9264C14.9288 35.6881 13.727 34.5166 12.9258 32.8287C12.2125 31.3097 11.9682 29.6913 12.0562 28.0134C12.0855 27.5071 12.1734 27.0106 12.2418 26.5142C12.2516 26.4249 12.3298 26.3256 12.232 26.266C12.1539 26.2164 12.0855 26.3057 12.0171 26.3454C10.9716 26.9809 9.86748 27.4475 8.69496 27.7751C7.53222 28.0928 6.34993 28.2318 5.13834 28.0829C4.05376 27.9538 3.17437 27.4078 2.41224 26.6433C1.33743 25.5611 0.575298 24.2902 0.174689 22.801C-0.235691 21.2819 0.0965218 19.8919 0.966137 18.641C2.50018 16.4269 4.69864 15.3149 7.24886 14.8185C7.44428 14.7788 7.6397 14.7589 7.91329 14.7192Z" fill="#7B8FCB"/>
</svg>
