<svg width="268" height="268" viewBox="0 0 268 268" fill="none" xmlns="http://www.w3.org/2000/svg">
<rect width="268" height="268" rx="35" fill="#7B8FCB"/>
<path d="M115.893 232.608C115.893 233.456 115.677 234.216 115.245 234.888C114.813 235.544 114.229 236.064 113.493 236.448C112.773 236.816 111.981 237 111.117 237H103.077V219.96H111.285C112.085 219.96 112.773 220.176 113.349 220.608C113.941 221.024 114.389 221.568 114.693 222.24C115.013 222.896 115.173 223.584 115.173 224.304C115.173 225.152 114.957 225.936 114.525 226.656C114.093 227.376 113.493 227.912 112.725 228.264C113.701 228.552 114.469 229.088 115.029 229.872C115.605 230.656 115.893 231.568 115.893 232.608ZM114.213 232.32C114.213 231.744 114.085 231.216 113.829 230.736C113.573 230.24 113.221 229.84 112.773 229.536C112.341 229.232 111.845 229.08 111.285 229.08H104.757V235.536H111.117C111.693 235.536 112.213 235.384 112.677 235.08C113.141 234.776 113.509 234.384 113.781 233.904C114.069 233.408 114.213 232.88 114.213 232.32ZM104.757 221.424V227.712H110.613C111.173 227.712 111.669 227.568 112.101 227.28C112.533 226.976 112.877 226.584 113.133 226.104C113.389 225.624 113.517 225.112 113.517 224.568C113.517 223.992 113.397 223.472 113.157 223.008C112.917 222.528 112.589 222.144 112.173 221.856C111.757 221.568 111.285 221.424 110.757 221.424H104.757ZM117.718 233.4C117.718 232.616 117.942 231.944 118.39 231.384C118.838 230.808 119.454 230.368 120.238 230.064C121.038 229.744 121.958 229.584 122.998 229.584C123.606 229.584 124.238 229.632 124.894 229.728C125.55 229.824 126.134 229.968 126.646 230.16V229.104C126.646 228.048 126.334 227.208 125.71 226.584C125.086 225.96 124.222 225.648 123.118 225.648C122.446 225.648 121.782 225.776 121.126 226.032C120.486 226.272 119.814 226.632 119.11 227.112L118.486 225.96C119.302 225.4 120.102 224.984 120.886 224.712C121.67 224.424 122.47 224.28 123.286 224.28C124.822 224.28 126.038 224.72 126.934 225.6C127.83 226.48 128.278 227.696 128.278 229.248V235.032C128.278 235.256 128.326 235.424 128.422 235.536C128.518 235.632 128.67 235.688 128.878 235.704V237C128.702 237.016 128.55 237.032 128.422 237.048C128.294 237.064 128.198 237.064 128.134 237.048C127.734 237.032 127.43 236.904 127.222 236.664C127.014 236.424 126.902 236.168 126.886 235.896L126.862 234.984C126.302 235.704 125.574 236.264 124.678 236.664C123.782 237.048 122.87 237.24 121.942 237.24C121.142 237.24 120.414 237.072 119.758 236.736C119.118 236.384 118.614 235.92 118.246 235.344C117.894 234.752 117.718 234.104 117.718 233.4ZM126.094 234.36C126.27 234.136 126.406 233.92 126.502 233.712C126.598 233.504 126.646 233.32 126.646 233.16V231.336C126.102 231.128 125.534 230.968 124.942 230.856C124.366 230.744 123.782 230.688 123.19 230.688C122.022 230.688 121.078 230.92 120.358 231.384C119.638 231.848 119.278 232.48 119.278 233.28C119.278 233.744 119.398 234.184 119.638 234.6C119.878 235 120.23 235.336 120.694 235.608C121.158 235.864 121.702 235.992 122.326 235.992C123.11 235.992 123.838 235.84 124.51 235.536C125.198 235.232 125.726 234.84 126.094 234.36ZM138.044 225.936C136.956 225.968 135.996 226.272 135.164 226.848C134.348 227.424 133.772 228.216 133.436 229.224V237H131.804V224.496H133.34V227.496C133.772 226.616 134.34 225.904 135.044 225.36C135.764 224.816 136.524 224.512 137.324 224.448C137.484 224.432 137.62 224.424 137.732 224.424C137.86 224.424 137.964 224.432 138.044 224.448V225.936ZM146.458 225.936C145.37 225.968 144.41 226.272 143.578 226.848C142.762 227.424 142.186 228.216 141.85 229.224V237H140.218V224.496H141.754V227.496C142.186 226.616 142.754 225.904 143.458 225.36C144.178 224.816 144.938 224.512 145.738 224.448C145.898 224.432 146.034 224.424 146.146 224.424C146.274 224.424 146.378 224.432 146.458 224.448V225.936ZM153.634 237.24C152.738 237.24 151.906 237.072 151.138 236.736C150.37 236.384 149.706 235.912 149.146 235.32C148.586 234.712 148.146 234.016 147.826 233.232C147.522 232.448 147.37 231.608 147.37 230.712C147.37 229.544 147.634 228.472 148.162 227.496C148.706 226.52 149.45 225.744 150.394 225.168C151.338 224.576 152.41 224.28 153.61 224.28C154.842 224.28 155.914 224.576 156.826 225.168C157.754 225.76 158.482 226.544 159.01 227.52C159.538 228.48 159.802 229.536 159.802 230.688C159.802 230.816 159.802 230.944 159.802 231.072C159.802 231.184 159.794 231.272 159.778 231.336H149.074C149.154 232.232 149.402 233.032 149.818 233.736C150.25 234.424 150.802 234.976 151.474 235.392C152.162 235.792 152.906 235.992 153.706 235.992C154.522 235.992 155.29 235.784 156.01 235.368C156.746 234.952 157.258 234.408 157.546 233.736L158.962 234.12C158.706 234.712 158.314 235.248 157.786 235.728C157.258 236.208 156.634 236.584 155.914 236.856C155.21 237.112 154.45 237.24 153.634 237.24ZM149.026 230.16H158.266C158.202 229.248 157.954 228.448 157.522 227.76C157.106 227.072 156.554 226.536 155.866 226.152C155.194 225.752 154.45 225.552 153.634 225.552C152.818 225.552 152.074 225.752 151.402 226.152C150.73 226.536 150.178 227.08 149.746 227.784C149.33 228.472 149.09 229.264 149.026 230.16ZM162.392 219.48H164.024V234.168C164.024 234.792 164.136 235.2 164.36 235.392C164.584 235.584 164.856 235.68 165.176 235.68C165.464 235.68 165.752 235.648 166.04 235.584C166.328 235.52 166.576 235.456 166.784 235.392L167.072 236.712C166.768 236.84 166.392 236.944 165.944 237.024C165.512 237.104 165.136 237.144 164.816 237.144C164.08 237.144 163.488 236.928 163.04 236.496C162.608 236.064 162.392 235.472 162.392 234.72V219.48Z" fill="white"/>
<path d="M209.356 44.0528C205.824 44.0528 202.344 44.0528 198.813 44.0528C198.086 44.0528 197.774 43.8451 197.566 43.1699C196.995 41.0405 195.489 40.0536 193.099 40.0017C190.555 39.9498 188.737 41.0924 188.165 43.118C187.958 43.897 187.594 44.0528 186.867 44.0528C180.79 44.0009 174.765 44.0528 168.689 44.0528C165.988 44.0528 163.287 44.0528 160.534 44.0528C160.171 44.0528 159.652 44.2606 159.548 43.6373C159.08 40.9885 157.21 40.2094 154.873 40.1056C152.952 40.0017 150.511 40.7808 149.991 43.2218C149.835 43.897 149.524 44.1048 148.848 44.1048C145.265 44.0528 141.681 44.1048 138.097 44.1048C137.682 44.1048 137.214 44.0528 136.799 44.2606C135.552 44.78 134.721 46.1823 134.981 47.5327C135.241 48.9869 136.435 50.0257 137.89 50.0257C141.369 50.0776 144.849 50.0776 148.277 50.0257C149.42 49.9737 149.731 50.2854 149.731 51.4799C149.731 77.293 149.783 103.106 149.835 128.919C149.835 129.75 149.835 130.633 149.887 131.464C149.887 131.828 149.887 132.243 149.939 132.607C149.939 132.918 149.939 133.23 149.991 133.594C149.991 133.749 149.991 133.905 149.939 134.009V164.133C149.939 164.6 149.576 164.964 149.108 164.964C148.641 164.964 148.277 164.6 148.277 164.133V133.957C147.55 133.801 146.823 133.697 146.044 133.594C145.109 133.49 144.693 133.074 144.693 131.984C144.745 116.973 144.693 101.963 144.693 87.0054C144.693 83.5775 144.693 80.1496 144.226 76.7217C143.447 70.4892 141.162 64.8799 136.799 60.2574C131.034 54.1288 123.814 51.1683 115.504 51.0125C108.129 50.9086 100.754 51.0125 93.3789 50.9606C92.2883 50.9606 91.2495 50.9606 90.1588 50.8048C87.3022 50.3893 84.4456 50.3373 81.5891 50.8048C74.5255 52.0513 69.124 55.8427 64.8651 61.4001C58.8403 69.2946 56.2954 78.4357 56.2434 88.2C56.0876 109.806 56.1915 131.464 56.1915 153.07C56.1915 154.317 55.6202 155.927 56.4512 156.758C57.2302 157.589 58.7364 157.693 59.983 158.056C77.6418 162.99 95.1968 168.288 112.856 173.43C125.632 177.169 138.409 180.909 151.134 184.7C152.848 185.22 154.354 185.064 155.912 184.233C162.664 180.649 169.468 177.117 176.22 173.586C181.933 170.625 187.646 167.613 193.359 164.652C196.372 163.094 197.878 160.705 197.878 157.173C197.826 139.722 197.826 122.323 197.826 104.872H197.878C197.878 87.0573 197.878 69.2946 197.878 51.4799C197.878 49.766 197.722 49.9738 199.436 49.9738C202.708 49.9738 205.98 49.9738 209.252 49.9738C211.33 49.9738 212.68 48.8311 212.68 47.0133C212.732 45.1435 211.537 44.0528 209.356 44.0528ZM109.324 126.063C109.324 138.943 109.324 151.824 109.324 164.704C109.324 166.574 109.324 166.574 107.558 166.055C96.3394 162.783 85.1728 159.459 73.9542 156.238C70.3186 155.2 66.6829 154.213 63.0473 153.226C62.1643 153.018 61.9046 152.603 61.9046 151.668C61.9566 130.27 61.8527 108.819 61.9566 87.4209C62.0085 79.0589 64.3457 71.3202 69.5914 64.6721C73.0193 60.3094 77.434 57.297 83.0433 56.5699C88.5487 55.8427 93.4309 57.5047 97.6898 61.0365C103.974 66.3341 107.142 73.2938 108.597 81.1884C109.168 84.3566 109.324 87.5767 109.324 90.7968C109.272 102.535 109.324 114.325 109.324 126.063ZM115.868 97.5488C123.295 95.5232 130.722 93.4457 138.149 91.3682C139.084 91.1085 139.24 91.3162 139.24 92.1992C139.24 105.495 139.24 118.739 139.24 132.035C139.24 132.763 139.032 133.074 138.357 133.334C130.826 135.983 123.295 138.632 115.764 141.332C114.777 141.696 114.829 141.28 114.829 140.553C114.829 133.594 114.829 126.686 114.829 119.726C114.829 112.818 114.829 105.911 114.829 99.055C114.777 98.172 114.985 97.7565 115.868 97.5488ZM148.9 178.156C137.838 174.936 126.827 171.716 115.764 168.548C115.037 168.34 114.829 167.976 114.829 167.197C114.881 164.704 114.829 162.159 114.829 159.666C114.829 158.212 114.829 158.212 116.18 158.524C122.88 160.134 129.528 161.692 136.228 163.302C140.331 164.289 144.486 165.38 148.589 166.314C149.472 166.522 149.835 166.834 149.783 167.821C149.68 169.379 149.783 170.937 149.783 172.495C149.783 174.157 149.783 175.819 149.783 177.533C149.783 178.208 149.576 178.364 148.9 178.156ZM187.854 107.781C187.854 108.612 187.698 108.923 186.763 108.923C178.141 108.871 169.572 108.871 160.95 108.923C160.067 108.923 159.807 108.715 159.807 107.781C159.859 102.691 159.859 97.6007 159.807 92.4589C159.807 91.472 160.171 91.3162 161.054 91.3162C164.274 91.3682 167.494 91.3682 170.714 91.3162C171.805 91.3162 172.844 91.3162 173.934 91.3162C174.973 91.3162 176.012 91.3162 177.103 91.3162C180.323 91.3162 183.543 91.3162 186.763 91.3162C187.646 91.3162 187.906 91.524 187.906 92.4589C187.802 97.6007 187.802 102.691 187.854 107.781ZM187.854 84.3046C187.854 84.9798 187.75 85.2914 186.971 85.2914C180.894 85.2914 174.869 85.3434 168.793 85.3434C166.144 85.3434 163.547 85.2914 160.898 85.3434C160.119 85.3434 159.807 85.1876 159.807 84.3046C159.859 79.0589 159.859 73.8651 159.807 68.6194C159.807 67.7365 160.119 67.6845 160.846 67.6845C165.209 67.6845 169.52 67.6845 173.883 67.6845C178.193 67.6845 182.504 67.6845 186.815 67.6845C187.646 67.6845 187.906 67.8923 187.906 68.7233C187.802 73.9171 187.802 79.1108 187.854 84.3046ZM160.898 49.9738C165.209 50.0257 169.52 49.9738 173.831 49.9738C178.193 49.9738 182.504 49.9738 186.867 49.9738C187.646 49.9738 187.906 50.1815 187.854 50.9606C187.802 54.2326 187.802 57.5047 187.854 60.7768C187.854 61.6078 187.594 61.7636 186.815 61.7636C178.141 61.7636 169.52 61.7117 160.846 61.7636C160.015 61.7636 159.755 61.5039 159.807 60.6729C159.859 57.4528 159.859 54.2327 159.755 51.0125C159.755 50.1296 160.119 49.9738 160.898 49.9738ZM187.023 161.432C180.582 164.808 174.09 168.184 167.65 171.508C165.313 172.703 162.976 173.897 160.638 175.144C159.963 175.507 159.755 175.455 159.755 174.624C159.807 170.937 159.755 167.197 159.755 163.51C159.755 162.99 159.859 162.627 160.379 162.367C169.364 158.004 178.297 153.59 187.282 149.175C187.386 149.123 187.49 149.123 187.802 149.019C187.802 152.862 187.802 156.602 187.802 160.393C187.854 161.069 187.438 161.224 187.023 161.432ZM187.854 140.709C187.854 141.592 187.698 141.696 186.815 141.54C178.089 139.722 169.416 138.008 160.69 136.294C159.963 136.139 159.807 135.879 159.807 135.204C159.807 128.763 159.859 122.271 159.807 115.831C159.807 114.948 160.223 114.896 160.898 114.896C165.261 114.896 169.572 114.896 173.934 114.896C178.193 114.896 182.452 114.896 186.711 114.896C187.542 114.896 187.854 115 187.854 115.987C187.802 124.193 187.802 132.451 187.854 140.709Z" fill="#FEFEFE"/>
</svg>
