<svg width="268" height="268" viewBox="0 0 268 268" fill="none" xmlns="http://www.w3.org/2000/svg">
<rect width="268" height="268" rx="35" fill="#7B8FCB"/>
<path d="M39.1838 228.36C39.1838 227.32 39.3598 226.304 39.7118 225.312C40.0798 224.304 40.6078 223.392 41.2958 222.576C41.9838 221.744 42.8318 221.088 43.8398 220.608C44.8478 220.112 45.9918 219.864 47.2718 219.864C48.7918 219.864 50.0878 220.216 51.1598 220.92C52.2478 221.608 53.0478 222.496 53.5598 223.584L52.2398 224.4C51.8718 223.648 51.4078 223.056 50.8478 222.624C50.2878 222.176 49.6878 221.856 49.0478 221.664C48.4238 221.472 47.7998 221.376 47.1758 221.376C46.1518 221.376 45.2478 221.584 44.4638 222C43.6798 222.4 43.0158 222.944 42.4718 223.632C41.9438 224.304 41.5438 225.064 41.2718 225.912C40.9998 226.744 40.8638 227.592 40.8638 228.456C40.8638 229.4 41.0238 230.304 41.3438 231.168C41.6638 232.032 42.1118 232.8 42.6878 233.472C43.2638 234.128 43.9358 234.656 44.7038 235.056C45.4878 235.44 46.3358 235.632 47.2478 235.632C47.8878 235.632 48.5438 235.52 49.2158 235.296C49.8878 235.072 50.5118 234.728 51.0878 234.264C51.6798 233.8 52.1518 233.2 52.5038 232.464L53.8958 233.184C53.5438 234.032 52.9998 234.752 52.2638 235.344C51.5278 235.936 50.7038 236.384 49.7918 236.688C48.8958 236.992 48.0158 237.144 47.1518 237.144C45.9838 237.144 44.9118 236.896 43.9358 236.4C42.9598 235.888 42.1118 235.216 41.3918 234.384C40.6878 233.536 40.1438 232.592 39.7598 231.552C39.3758 230.496 39.1838 229.432 39.1838 228.36ZM61.8105 219.96H63.2265L70.3065 237H68.5305L66.3225 231.672H58.6665L56.4825 237H54.6825L61.8105 219.96ZM65.9385 230.352L62.5065 221.928L59.0265 230.352H65.9385ZM72.7493 237V219.96H83.9333V221.448H74.4293V227.712H82.4453V229.104H74.4293V237H72.7493ZM93.418 237.12C92.218 237.12 91.13 236.88 90.154 236.4C89.178 235.92 88.338 235.272 87.634 234.456C86.93 233.624 86.386 232.696 86.002 231.672C85.618 230.632 85.426 229.568 85.426 228.48C85.426 227.344 85.626 226.264 86.026 225.24C86.426 224.2 86.986 223.28 87.706 222.48C88.442 221.664 89.298 221.024 90.274 220.56C91.25 220.08 92.306 219.84 93.442 219.84C94.642 219.84 95.73 220.088 96.706 220.584C97.682 221.08 98.514 221.744 99.202 222.576C99.906 223.408 100.45 224.336 100.834 225.36C101.218 226.384 101.41 227.432 101.41 228.504C101.41 229.64 101.21 230.728 100.81 231.768C100.41 232.792 99.85 233.712 99.13 234.528C98.41 235.328 97.562 235.96 96.586 236.424C95.61 236.888 94.554 237.12 93.418 237.12ZM87.106 228.48C87.106 229.408 87.258 230.304 87.562 231.168C87.866 232.016 88.298 232.776 88.858 233.448C89.418 234.104 90.082 234.632 90.85 235.032C91.634 235.416 92.49 235.608 93.418 235.608C94.394 235.608 95.266 235.408 96.034 235.008C96.818 234.592 97.482 234.048 98.026 233.376C98.586 232.688 99.01 231.92 99.298 231.072C99.586 230.224 99.73 229.36 99.73 228.48C99.73 227.552 99.578 226.664 99.274 225.816C98.97 224.968 98.53 224.208 97.954 223.536C97.394 222.864 96.73 222.336 95.962 221.952C95.194 221.568 94.346 221.376 93.418 221.376C92.458 221.376 91.586 221.576 90.802 221.976C90.034 222.376 89.37 222.92 88.81 223.608C88.266 224.28 87.842 225.04 87.538 225.888C87.25 226.736 87.106 227.6 87.106 228.48ZM104.577 237V219.96H111.777C112.513 219.96 113.185 220.112 113.793 220.416C114.401 220.72 114.929 221.136 115.377 221.664C115.841 222.176 116.193 222.752 116.433 223.392C116.689 224.016 116.817 224.656 116.817 225.312C116.817 226.128 116.657 226.896 116.337 227.616C116.033 228.336 115.593 228.944 115.017 229.44C114.457 229.936 113.793 230.264 113.025 230.424L117.201 237H115.305L111.297 230.712H106.257V237H104.577ZM106.257 229.224H111.825C112.497 229.224 113.081 229.04 113.577 228.672C114.073 228.304 114.457 227.824 114.729 227.232C115.001 226.624 115.137 225.984 115.137 225.312C115.137 224.624 114.977 223.992 114.657 223.416C114.353 222.824 113.937 222.352 113.409 222C112.897 221.632 112.321 221.448 111.681 221.448H106.257V229.224ZM135.353 237V223.128L129.185 233.904H128.129L121.937 223.128V237H120.257V219.96H121.985L128.633 231.624L135.329 219.96H137.033V237H135.353ZM152.752 235.512V237H141.304V219.96H152.536V221.448H142.984V227.592H151.312V229.008H142.984V235.512H152.752ZM155.929 237V219.96H163.129C163.865 219.96 164.537 220.112 165.145 220.416C165.753 220.72 166.281 221.136 166.729 221.664C167.193 222.176 167.545 222.752 167.785 223.392C168.041 224.016 168.169 224.656 168.169 225.312C168.169 226.128 168.009 226.896 167.689 227.616C167.385 228.336 166.945 228.944 166.369 229.44C165.809 229.936 165.145 230.264 164.377 230.424L168.553 237H166.657L162.649 230.712H157.609V237H155.929ZM157.609 229.224H163.177C163.849 229.224 164.433 229.04 164.929 228.672C165.425 228.304 165.809 227.824 166.081 227.232C166.353 226.624 166.489 225.984 166.489 225.312C166.489 224.624 166.329 223.992 166.009 223.416C165.705 222.824 165.289 222.352 164.761 222C164.249 221.632 163.673 221.448 163.033 221.448H157.609V229.224ZM176.646 237C176.646 236.456 176.694 235.912 176.79 235.368C176.886 234.808 177.07 234.256 177.342 233.712C177.614 233.168 178.014 232.648 178.542 232.152C179.07 231.64 179.766 231.16 180.63 230.712C181.094 230.472 181.574 230.24 182.07 230.016C182.566 229.776 183.03 229.52 183.462 229.248C183.91 228.96 184.262 228.64 184.518 228.288C184.79 227.92 184.926 227.488 184.926 226.992C184.926 226.592 184.806 226.2 184.566 225.816C184.342 225.432 183.99 225.12 183.51 224.88C183.046 224.64 182.462 224.52 181.758 224.52C181.246 224.52 180.782 224.592 180.366 224.736C179.95 224.88 179.582 225.064 179.262 225.288C178.942 225.496 178.67 225.712 178.446 225.936C178.222 226.144 178.038 226.32 177.894 226.464L176.862 225.336C176.942 225.24 177.118 225.072 177.39 224.832C177.678 224.576 178.038 224.312 178.47 224.04C178.918 223.768 179.438 223.536 180.03 223.344C180.638 223.152 181.302 223.056 182.022 223.056C182.998 223.056 183.83 223.232 184.518 223.584C185.222 223.92 185.758 224.376 186.126 224.952C186.494 225.528 186.678 226.152 186.678 226.824C186.678 227.48 186.534 228.048 186.246 228.528C185.974 228.992 185.614 229.4 185.166 229.752C184.734 230.088 184.278 230.384 183.798 230.64C183.334 230.88 182.91 231.088 182.526 231.264C181.774 231.616 181.142 231.968 180.63 232.32C180.118 232.672 179.71 233.032 179.406 233.4C179.102 233.752 178.862 234.104 178.686 234.456C178.526 234.792 178.414 235.144 178.35 235.512H186.942V237H176.646ZM196.023 237V224.496H197.655V237H196.023ZM196.023 221.88V219.48H197.655V221.88H196.023ZM211.761 237H210.129V230.016C210.129 228.544 209.913 227.472 209.481 226.8C209.049 226.112 208.369 225.768 207.441 225.768C206.801 225.768 206.169 225.928 205.545 226.248C204.921 226.552 204.369 226.976 203.889 227.52C203.425 228.048 203.089 228.656 202.881 229.344V237H201.249V224.496H202.737V227.328C203.073 226.72 203.513 226.192 204.057 225.744C204.601 225.28 205.217 224.92 205.905 224.664C206.593 224.408 207.305 224.28 208.041 224.28C208.729 224.28 209.313 224.408 209.793 224.664C210.273 224.92 210.657 225.288 210.945 225.768C211.233 226.232 211.441 226.8 211.569 227.472C211.697 228.128 211.761 228.864 211.761 229.68V237ZM229.303 235.512V237H221.167V235.512H224.575V225.24C224.447 225.432 224.231 225.64 223.927 225.864C223.623 226.088 223.271 226.296 222.871 226.488C222.487 226.68 222.103 226.84 221.719 226.968C221.335 227.096 220.983 227.16 220.663 227.16V225.576C221.031 225.576 221.431 225.472 221.863 225.264C222.295 225.056 222.711 224.816 223.111 224.544C223.511 224.272 223.847 224.016 224.119 223.776C224.391 223.536 224.543 223.376 224.575 223.296H226.255V235.512H229.303Z" fill="white"/>
<path d="M225.971 147.081C225.791 146.452 225.207 146.407 224.668 146.317C223.41 146.182 222.152 145.957 220.849 145.912C219.995 145.867 219.77 145.507 219.77 144.698C219.68 124.956 219.815 105.259 219.95 85.5172C219.95 84.8426 220.085 84.5278 220.849 84.3929C221.927 84.213 222.556 83.4935 222.511 82.2793C222.466 81.0651 221.702 80.4355 220.669 80.3456C219.905 80.2557 219.725 79.9858 219.725 79.3113C219.77 69.2829 219.725 59.2096 219.815 49.1813C219.815 47.0677 219.95 44.9541 219.95 42.8405C219.95 40.6819 219.77 40.502 217.613 40.0973C212.401 39.063 207.234 37.9837 202.021 36.9943C199.909 36.5896 197.797 36.05 195.686 36.005C192.091 35.96 188.496 36.2298 184.946 36.3648C180.453 36.5446 175.96 36.7245 171.466 36.8145C162.39 36.9494 153.313 37.2642 144.236 37.6239C139.698 37.8038 135.16 37.9837 130.621 38.1636C123.387 38.4784 116.197 38.7931 108.963 39.063C104.604 39.2428 100.201 39.1529 95.8423 39.2878C89.282 39.4677 82.7216 39.6476 76.1613 39.8275C71.6229 39.9624 67.0846 40.0073 62.5463 40.1423C58.2775 40.2772 54.0538 40.457 49.785 40.592C47.4934 40.6819 46.6846 41.5363 46.6846 43.7848C46.6846 75.0841 46.6846 106.383 46.6846 137.683C46.6846 139.302 46.8194 140.786 44.5727 141.01C43.674 141.1 43 141.91 43 142.854C43 143.754 43.674 144.428 44.4828 144.608C45.5612 144.878 45.696 145.507 45.696 146.497C45.6511 156.165 45.696 165.834 45.6511 175.503C45.6511 176.717 46.1004 177.301 47.2687 177.571C50.1894 178.336 53.0652 178.74 56.0308 177.931C57.1093 177.616 57.6485 177.211 57.5586 175.997C57.4687 174.019 57.6485 172.04 57.5137 170.061C57.4238 168.757 58.1427 168.262 59.1762 168.082C62.4115 167.453 65.6467 166.868 68.837 166.194C69.6908 166.014 69.7357 166.329 69.7357 166.958C69.6908 168.037 69.7806 169.117 69.7357 170.196C69.6908 171.006 70.0053 171.545 70.7692 171.635C73.3304 171.995 75.8018 172.849 78.4529 172.04C79.6212 171.68 80.2053 171.185 80.1604 169.926C80.1154 166.553 80.1604 163.136 80.1604 159.763C80.1604 157.02 80.1604 157.065 82.9013 157.425C87.1251 157.964 91.3939 158.414 95.6626 158.864C99.7516 159.313 103.841 159.718 107.93 160.168C112.108 160.617 116.287 161.112 120.421 161.607C123.746 161.967 127.026 162.326 130.352 162.686C134.62 163.136 138.844 163.63 143.113 164.08C147.247 164.53 151.381 164.935 155.515 165.384C160.278 165.924 164.996 166.509 169.714 167.048C174.342 167.588 178.97 168.037 183.598 168.577C185.306 168.757 185.53 169.072 185.53 170.781C185.53 171.275 185.53 171.77 185.53 172.265C185.53 179.37 185.53 186.475 185.486 193.581C185.486 194.435 185.62 195.11 186.654 195.289C188.856 195.694 191.147 195.964 193.304 196.594C196.18 197.403 198.606 197.043 200.943 195.155C202.021 194.3 202.605 193.581 202.605 192.186C202.516 184.272 202.56 176.402 202.56 168.487C202.56 167.948 202.516 167.453 203.145 167.183C205.301 166.194 207.458 165.159 209.84 164.08V165.519C209.84 171.545 209.84 177.571 209.84 183.642C209.84 184.272 209.795 185.036 210.604 185.126C212.895 185.441 215.142 186.071 217.479 185.936C219.725 185.801 221.433 183.867 221.433 181.663C221.433 173.029 221.433 164.395 221.478 155.716C221.478 153.197 221.747 150.769 224.264 149.285C224.668 149.06 225.027 148.655 225.387 148.296C225.746 148.071 226.106 147.666 225.971 147.081ZM73.7798 108.857C73.7798 109.801 73.7798 110.745 73.7798 111.69C73.7798 112.364 73.9146 112.904 72.9709 113.174C72.252 113.354 72.3419 114.793 73.1057 115.198C73.5551 115.467 73.7798 115.692 73.7798 116.232C73.7348 119.874 73.7348 123.517 73.6899 127.16C73.6899 127.924 73.5102 128.149 72.7912 127.744C69.6009 125.99 66.4555 124.237 63.2203 122.573C62.2767 122.078 62.2767 121.583 62.8159 120.774C66.1859 115.602 69.4661 110.431 72.7912 105.259C72.9709 104.989 73.0608 104.585 73.5101 104.719C73.9595 104.854 73.7798 105.259 73.7798 105.574C73.7798 106.653 73.7798 107.732 73.7798 108.857ZM69.556 67.4392C70.904 69.5528 72.2071 71.6664 73.5551 73.735C73.8247 74.1397 73.7798 74.5894 73.7798 75.0391C73.7798 77.9622 73.7798 80.8852 73.5551 83.8533C72.8361 82.9988 72.6564 81.9645 72.4317 80.9752C71.4881 76.748 70.5445 72.5658 69.6009 68.3835C69.511 68.1137 69.556 67.754 69.556 67.4392ZM69.511 67.4392C69.4661 67.3942 69.4212 67.3492 69.4212 67.3492H69.4661V67.3942C69.511 67.3942 69.511 67.3942 69.511 67.4392C69.511 67.3942 69.511 67.3942 69.511 67.4392ZM64.3886 46.618C67.2643 47.0227 70.185 47.4274 73.0608 47.7872C73.5551 47.8322 73.7798 47.9671 73.7798 48.5067C73.7798 55.657 73.7798 62.7623 73.7798 70.2723C71.9375 67.754 70.4996 65.4605 69.1066 63.122C68.7022 62.4475 68.5225 61.7279 68.5225 60.8735C68.4775 59.2096 67.7586 57.6806 67.2194 56.1516C66.7251 54.6676 66.4106 53.0037 65.467 51.8345C64.4784 50.5753 63.8494 49.2262 63.4449 47.7422C63.1753 46.8878 63.4449 46.4831 64.3886 46.618ZM54.6379 45.6736C56.0758 45.5836 57.5586 45.5387 58.9516 45.6286C60.1648 45.7186 60.659 46.8878 61.1084 47.7872C61.7375 49.1363 62.4564 50.5304 61.8723 52.1493C61.7375 52.5091 61.8723 52.8688 62.0071 53.2286C62.7709 55.4771 63.2203 57.9055 64.2538 60.0191C68.0731 67.9788 68.4775 76.748 70.7692 85.0675C70.8141 85.2024 70.7692 85.3823 70.7692 85.5621C70.6793 85.5621 70.6344 85.6071 70.5445 85.6071C69.0617 82.3243 67.6238 79.0864 66.141 75.8036C61.9172 66.4498 57.6934 57.141 53.4247 47.7872C52.526 45.8535 52.526 45.8085 54.6379 45.6736ZM51.178 51.9694C52.3912 53.3185 53.0203 54.8925 53.7392 56.4664C58.3225 66.4048 62.8608 76.2983 67.3991 86.2817C68.6573 89.1148 70.0053 91.9029 71.0837 94.781C71.4432 95.7254 71.2185 95.9503 70.2749 95.9503C68.3877 95.9503 66.5005 95.9503 64.5683 95.7704C64.1639 95.7254 63.8493 95.5905 63.5797 95.3657C59.7154 92.5325 55.8511 89.6994 51.9868 86.9113C51.4925 86.5515 51.133 86.2367 51.133 85.5172C51.178 74.3196 51.178 63.167 51.178 51.9694ZM51.133 113.803C51.178 106.563 51.178 99.323 51.178 92.1278C51.178 91.813 51.178 91.4532 51.178 90.8237C53.874 92.7574 56.3454 94.5562 58.8167 96.31C62.6361 99.0082 66.3657 101.886 70.4996 104.135C70.9938 104.405 71.0388 104.63 70.7242 105.079C67.2643 109.846 64.1639 114.883 61.0634 119.874C60.659 120.504 60.2546 120.549 59.6256 120.234C57.963 119.335 56.2555 118.48 54.548 117.626C53.9639 117.311 53.4247 116.951 53.2 116.277C53.0203 115.827 52.6608 115.377 52.2564 115.422C51.0432 115.467 51.133 114.658 51.133 113.803ZM51.133 119.65C51.133 118.84 51.3128 118.57 52.1665 118.75C52.6159 118.84 53.0652 118.795 53.4696 119.065C55.1771 120.054 56.8846 121.044 58.5921 122.033C59.0414 122.303 59.311 122.483 58.9516 123.067C56.3903 127.07 53.874 131.117 51.3577 135.119C51.3128 135.209 51.178 135.254 51.133 135.254C51.133 130.038 51.178 124.821 51.133 119.65ZM53.5145 176.627C52.526 176.672 52.9304 175.907 52.9304 175.503C52.8855 172.13 52.9304 168.712 52.9304 165.339V155.041C52.9304 154.501 52.7956 153.962 53.6943 154.007C54.3683 154.052 54.7278 154.187 54.7278 154.996C54.6828 161.832 54.7278 168.622 54.7278 175.458C54.7278 176.402 54.2335 176.582 53.5145 176.627ZM52.526 139.571C52.1216 139.616 51.7172 139.616 51.178 139.661C52.9753 136.333 54.9524 133.276 56.8397 130.173C58.0529 128.149 59.4009 126.215 60.6141 124.237C61.0185 123.562 61.4229 123.517 62.0969 123.922C65.6916 126.035 69.2864 128.104 72.926 130.173C73.5551 130.532 73.7797 130.982 73.7348 131.657C73.6449 132.871 73.6 134.13 73.6 135.344C73.6 136.019 73.3304 136.154 72.7463 136.244C68.9718 136.873 65.1974 137.503 61.4679 138.132C58.4573 138.627 55.4916 139.077 52.526 139.571ZM69.9604 156.705C69.6458 158.459 69.7806 160.258 69.8256 162.011C69.8256 162.731 69.6009 163.046 68.9269 163.181C65.467 163.855 62.0071 164.53 58.5471 165.204C57.8731 165.339 57.6035 165.294 57.6485 164.485C57.7383 162.956 57.6485 161.427 57.6485 159.898C57.6485 158.369 57.6934 156.84 57.6485 155.311C57.6485 154.636 57.8731 154.456 58.5022 154.501C62.052 154.906 65.6018 155.311 69.1516 155.671C69.8705 155.761 70.0952 156.03 69.9604 156.705ZM74.993 170.601C72.4767 170.196 72.4767 170.196 72.4767 167.588C72.4767 164.215 72.5216 160.842 72.4767 157.425C72.4767 156.615 72.5665 156.21 73.5101 156.435C74.1392 156.57 74.8132 156.66 75.4423 156.705C76.0714 156.75 75.9815 157.2 75.9815 157.604C75.9815 159.673 75.9815 161.742 75.9815 163.81C75.9815 165.789 75.9366 167.768 75.9815 169.746C76.0264 170.601 75.7119 170.736 74.993 170.601ZM75.3524 143.888C72.6115 143.619 69.8705 143.349 67.1295 143.079C63.7595 142.764 60.4344 142.449 57.0643 142.135C56.8846 142.135 56.6599 142.135 56.3903 141.73C58.9066 141.37 61.333 140.965 63.7146 140.606C67.6238 140.066 71.5331 139.526 75.3974 138.942C76.341 138.807 76.5657 139.032 76.5207 139.931C76.4758 140.875 76.4309 141.82 76.5207 142.764C76.6555 143.799 76.2062 143.978 75.3524 143.888ZM76.0714 100.492C76.0714 99.9076 76.7005 100.177 77.0599 100.132C79.6212 100.043 82.1824 100.312 84.7436 100.492C82.2273 100.627 79.6661 100.987 77.1049 100.897C76.7454 100.942 76.0714 101.212 76.0714 100.492ZM84.0696 118.795C83.7102 119.38 83.3507 119.38 82.8564 119.02C81.2837 117.761 79.6661 116.502 78.0934 115.287C77.689 114.973 77.689 114.613 77.689 114.208C77.689 111.15 77.689 108.092 77.689 105.034C77.689 104.45 77.7789 104.18 78.4978 104.135C82.8115 103.82 87.1251 103.505 91.4388 103.145C92.3375 103.056 93.2362 102.786 94.3595 102.966C91.5287 107.058 88.9674 111.195 86.3613 115.287C85.5974 116.457 84.7886 117.626 84.0696 118.795ZM85.2828 123.157C90.9445 127.609 96.5163 132.196 102.403 136.378C102.672 136.603 103.167 136.783 103.077 137.188C102.942 137.683 102.448 137.413 102.088 137.413C101.459 137.458 100.83 137.413 99.8864 137.413C96.8309 137.233 93.4159 137.098 90.0009 136.873C88.3383 136.738 86.9903 135.749 85.5974 134.984C83.7102 133.905 81.8679 132.736 79.9806 131.612C79.4414 131.297 79.3965 131.027 79.711 130.442C81.104 128.104 82.4969 125.766 83.8 123.382C84.2943 122.483 84.5639 122.573 85.2828 123.157ZM91.3939 96.0402C88.1137 95.8603 84.7886 96.1301 81.5084 95.8154C80.6996 95.7254 79.8458 95.6804 79.037 95.7704C77.689 95.9503 77.4194 95.3207 77.4643 94.1515C77.5093 92.2177 77.4194 90.284 77.4194 88.3503C77.4194 85.3823 77.2846 82.4142 77.7789 79.1764C82.452 84.7977 86.9903 90.284 91.5287 95.7704C91.5287 95.8153 91.4837 95.9503 91.3939 96.0402ZM77.5093 117.491C79.3066 118.57 80.7894 119.784 82.3621 120.909C82.6767 121.134 82.6317 121.358 82.452 121.628C81.0141 124.012 79.6212 126.44 78.1833 128.823C78.1383 128.913 78.0035 128.958 77.8238 129.093C77.4643 125.226 77.4643 121.448 77.5093 117.491ZM78.5877 135.704C78.2731 135.659 77.7339 135.794 77.7339 135.254C77.689 134.535 77.5991 133.77 77.9137 133.096C78.0035 132.871 78.2731 133.051 78.4529 133.141C79.9806 133.95 81.5533 134.76 83.0811 135.614C81.5084 135.884 80.0705 135.974 78.5877 135.704ZM182.834 161.787C182.745 162.686 181.981 163.316 181.037 163.226C180.049 163.136 179.285 162.371 179.375 161.472C179.464 160.662 180.408 159.943 181.262 160.033C182.115 160.123 182.879 160.977 182.834 161.787ZM183.239 154.322C181.531 154.142 179.824 153.962 178.071 153.782C177.218 153.692 177.218 153.152 177.532 152.523C178.476 150.319 179.419 148.161 180.453 145.777C181.082 146.587 181.352 147.351 181.621 148.071C182.34 149.87 182.969 151.713 183.868 153.422C184.227 154.097 184.048 154.367 183.239 154.322ZM192.81 155.311C191.417 155.176 190.024 155.086 188.631 154.996C188.047 154.951 187.732 154.681 187.553 154.142C185.89 150.139 184.227 146.137 182.52 142.18C182.295 141.685 182.475 141.28 182.61 140.875C183.823 137.728 185.081 134.58 186.294 131.432C186.564 130.712 187.148 130.577 187.732 130.442C189.395 130.128 191.057 129.813 192.63 129.273C193.349 129.048 193.484 129.228 193.484 129.903C193.484 132.106 193.484 134.265 193.484 136.468H193.529C193.529 138.537 193.484 140.606 193.574 142.674C193.619 143.664 193.214 143.933 192.36 143.754C190.428 143.349 188.406 143.754 186.429 143.349C185.8 143.214 185.575 143.394 185.53 144.113C185.441 146.227 185.62 146.407 187.732 146.542C189.44 146.632 191.192 146.901 192.9 146.991C193.619 147.036 193.708 147.351 193.708 147.936C193.708 150.094 193.708 152.253 193.753 154.367C193.798 155.176 193.529 155.356 192.81 155.311ZM193.798 79.0864C193.798 79.8509 193.708 80.3456 192.81 80.5705C191.821 80.7953 191.282 81.5148 191.282 82.5491C191.282 83.6734 191.911 84.3929 192.9 84.5728C193.753 84.7527 193.753 85.2024 193.753 85.8769C193.753 97.6591 193.753 109.441 193.753 121.224C193.753 121.988 193.619 122.393 192.72 122.573C190.473 123.022 188.271 123.742 185.98 124.147C184.497 124.371 183.823 125.181 183.329 126.485C180.183 134.265 176.993 142.045 173.803 149.825C173.488 150.589 173.084 151.309 172.814 152.073C172.455 153.107 171.781 153.377 170.747 153.287C165.894 152.748 160.997 152.298 156.144 151.848C152.324 151.488 148.505 151.174 144.686 150.814C140.147 150.364 135.609 149.825 131.071 149.375C126.487 148.925 121.904 148.52 117.276 148.071C112.558 147.621 107.84 147.126 103.122 146.632C99.3022 146.272 95.4828 145.957 91.6635 145.597C88.1586 145.283 84.6987 144.878 81.1939 144.563C80.1604 144.473 79.711 144.068 79.8009 142.944C79.8908 141.685 79.8458 140.381 79.8009 139.122C79.8009 138.447 79.9806 138.132 80.6996 138.132C83.0811 138.267 85.4626 138.357 87.889 138.492C88.563 138.537 89.1472 138.807 89.6864 139.212C91.7533 140.561 93.8652 141.865 95.9322 143.214C96.2467 143.394 96.5613 143.619 96.9657 143.664C97.5049 143.709 97.8643 143.484 98.0441 143.034C98.2688 142.494 97.9093 142.315 97.5049 142.09C95.8873 141.19 94.2696 140.291 92.4723 139.257H104.11C103.885 140.111 103.077 140.201 102.762 140.741C102.627 140.965 102.403 141.145 102.537 141.37C102.717 141.685 102.987 141.595 103.301 141.505C105.054 140.965 106.716 140.336 108.109 139.032C108.424 138.717 108.738 138.357 108.828 137.907C109.323 136.154 109.143 135.839 107.345 135.884C105.323 135.884 103.616 135.344 101.953 133.995C96.8758 129.858 91.6185 125.9 86.4062 121.943C85.4626 121.224 85.2828 120.729 86.0018 119.605C89.282 114.478 92.4273 109.306 95.5727 104.135C95.8873 103.595 96.2467 103.145 96.741 102.696C98.1789 101.347 98.134 99.1431 96.8309 97.6591C93.0564 93.252 89.3269 88.755 85.5524 84.303C83.0811 81.3799 80.6097 78.4119 78.1383 75.4888C77.7789 75.0841 77.5991 74.7243 77.5542 74.1847C77.1947 64.9658 77.3745 55.7469 77.3295 46.528C77.3295 45.6736 77.6441 45.5387 78.408 45.4937C84.6088 45.3588 90.8097 45.2689 96.9657 44.9541C101.729 44.7292 106.447 44.8192 111.21 44.7742C111.614 44.7742 111.974 44.7742 112.648 44.7742C110.805 46.3032 109.053 47.3825 107.256 48.4168C106.761 48.7316 106.312 48.6866 105.952 48.057C105.458 47.1576 104.56 47.3825 103.751 47.5174C102.897 47.6523 102.987 48.2819 102.852 48.9114C102.448 50.5304 103.391 52.0594 103.211 53.6783C103.077 54.6227 103.032 55.4771 102.358 56.2866C101.594 57.2309 101.863 58.58 101.729 59.7493C101.234 64.8309 100.92 69.9575 100.471 75.0391C100.336 76.6581 100.65 78.3219 99.9762 79.9409C99.7965 80.4355 100.111 80.9752 100.515 81.245C102.223 82.4592 101.953 84.258 101.863 85.9219C101.819 86.5965 101.774 87.226 101.953 87.8556C102.807 90.9136 104.245 93.7018 106.492 95.9503C110.401 99.8177 116.557 99.4579 120.062 95.1858C121.904 92.9373 122.982 90.329 123.656 87.5408C123.971 86.2367 123.297 84.8876 123.701 83.4935C123.971 82.6391 123.971 81.8296 125.049 81.4249C126.083 81.0202 126.352 79.9858 125.723 79.0415C125.319 78.4569 125.274 77.8722 125.274 77.1977C125.274 70.9019 125.274 64.606 125.274 58.3552C125.274 57.5007 125.229 56.6913 124.555 56.0617C124.33 55.8368 124.286 55.567 124.286 55.2522C124.375 53.3635 124.061 51.4298 124.51 49.586C124.555 49.3611 124.555 49.0913 124.555 48.8665C124.6 47.9671 124.555 47.1576 123.387 47.0677C122.443 47.0227 121.634 47.7872 121.589 48.8665C121.545 50.8002 121.589 52.7339 121.589 54.7126C121.589 55.3422 121.545 55.9268 121.185 56.4664C120.781 57.0061 120.826 57.6357 120.871 58.2652C120.915 64.5161 120.736 70.767 121.095 76.9728C121.14 78.0072 120.826 78.277 119.792 78.277C114.984 78.232 110.221 78.277 105.413 78.277C104.649 78.277 104.515 78.1421 104.604 77.2876C104.964 73.8249 105.189 70.3622 105.458 66.9445C105.683 64.2463 105.908 61.5031 106.132 58.8049C106.222 57.7706 106.222 56.8262 105.503 55.8818C104.335 54.4877 105.189 51.2049 106.896 50.4404C109.952 49.0913 112.693 47.3375 115.299 45.2239C115.928 44.6842 116.692 44.4594 117.456 44.4594C122.174 44.3695 126.847 43.8748 131.565 43.8748C132.104 43.8748 132.463 43.8748 132.643 44.5943C132.778 45.1339 133.048 45.7635 133.452 46.1233C135.429 47.7872 135.204 50.1706 134.62 51.9694C134.036 53.7233 133.901 55.2522 133.856 57.0061C133.767 59.6143 132.913 62.1776 132.419 64.7409C131.879 67.5291 131.385 70.3622 132.059 73.1953C132.733 75.9385 134.8 77.1977 137.586 76.658C139.204 76.3433 140.507 74.6344 140.686 72.6107C141.046 69.148 140.057 65.9102 139.338 62.6273C138.979 60.9185 138.575 59.2546 138.17 57.5907C137.945 56.7363 137.856 55.9268 138.305 55.0724C138.709 54.3079 138.395 53.5883 137.766 53.0937C136.867 52.4191 136.597 51.5647 136.687 50.4854C136.732 50.0357 136.732 49.541 136.597 49.1363C136.328 48.1919 136.597 47.4724 137.182 46.7529C137.676 46.1683 138.17 45.4937 138.26 44.6842C138.395 43.605 139.069 43.515 139.878 43.47C142.124 43.3801 144.416 43.3801 146.708 43.2902C151.965 43.0653 157.177 43.0653 162.434 42.9304C163.468 42.8854 163.782 43.2002 163.738 44.2345C163.693 45.1339 164.187 45.8984 164.636 46.618C165.894 48.5517 165.804 50.5304 164.771 52.5091C164.412 53.1836 164.187 53.8132 164.187 54.6227C164.232 58.4901 164.367 62.4025 164.636 66.2699C164.681 67.2143 164.546 68.0238 163.917 68.7883C162.3 70.677 162.794 73.78 163.782 75.4439C164.996 77.4675 167.961 77.3326 169.13 75.219C170.253 73.1504 170.478 70.9468 168.995 68.9232C168.456 68.2037 168.321 67.4841 168.321 66.6297C168.456 62.5374 168.501 58.4451 168.59 54.3528C168.59 53.6333 168.411 53.0037 167.961 52.4191C166.973 51.2049 166.883 48.3268 167.871 47.0677C168.725 45.9434 169.354 44.7742 169.354 43.3801C169.354 42.7056 169.804 42.7955 170.208 42.7955C171.601 42.7955 172.994 42.6606 174.387 42.6156C180.408 42.3908 186.429 42.2559 192.45 41.986C193.529 41.9411 193.708 42.3008 193.708 43.2902C193.753 55.2522 193.753 67.1693 193.798 79.0864ZM104.694 81.8296H112.872V81.7847C115.658 81.7847 118.399 81.7847 121.185 81.7847C121.949 81.7847 122.263 82.0095 122.129 82.774C121.904 84.0332 121.904 85.2923 120.781 86.3266C119.747 87.271 119.478 88.755 118.893 90.0592C118.174 91.6331 117.411 93.1621 116.377 94.5562C114.67 96.8497 111.974 97.0295 110.041 94.916C108.514 93.2521 107.615 91.1834 106.716 89.1598C106.132 87.8107 105.683 86.4616 104.425 85.4722C103.526 84.7527 103.796 83.3136 103.571 82.2344C103.481 81.7847 104.155 81.9196 104.47 81.8746C104.515 81.8296 104.604 81.8296 104.694 81.8296ZM136.013 61.2333C136.552 64.2013 137.316 67.1244 137.586 70.0924C137.676 70.9918 137.766 71.8912 137.496 72.7906C137.316 73.3303 137.137 73.8249 136.508 73.8699C135.878 73.9149 135.519 73.6001 135.16 73.1504C134.8 72.6107 134.665 72.0261 134.62 71.3965C134.441 67.9338 135.474 64.606 136.013 61.2333ZM198.471 60.6936H198.516C198.516 54.5327 198.516 48.3718 198.516 42.2109C198.516 41.4464 198.606 41.1316 199.505 41.3115C204.627 42.2559 209.75 43.2002 214.917 44.0547C215.906 44.2345 215.816 44.8192 215.771 45.4937C215.412 53.6783 215.636 61.8629 215.636 70.0474C215.636 73.1054 215.726 76.1634 215.861 79.2213C215.906 80.0758 215.636 80.3456 214.782 80.3456C209.75 80.3006 204.717 80.3006 199.685 80.3906C198.741 80.3906 198.516 80.1208 198.516 79.2213C198.471 73.0155 198.471 66.8545 198.471 60.6936ZM211.862 120.144C210.828 118.93 209.435 118.705 207.953 119.065C205.256 119.695 202.56 120.279 199.909 120.909C198.921 121.134 198.516 121.089 198.516 119.874C198.561 111.915 198.471 103.91 198.561 95.9503C198.606 92.4876 198.606 89.0249 198.651 85.5621C198.651 84.7527 198.831 84.4829 199.685 84.4829C204.627 84.5278 209.615 84.5278 214.558 84.4829C215.501 84.4829 215.636 84.8426 215.636 85.6521C215.591 95.4106 215.636 105.169 215.636 114.928H215.681C215.681 124.641 215.681 134.355 215.726 144.068C215.726 145.193 215.412 145.462 214.333 145.373C212.221 145.238 212.176 145.328 211.637 143.214C210.693 139.751 209.795 136.289 208.851 132.871C208.671 132.196 208.851 131.657 209.121 131.072C210.154 128.734 211.188 126.395 212.221 124.057C212.671 122.708 212.895 121.358 211.862 120.144ZM198.427 136.244C198.471 133.905 198.516 131.522 198.427 129.183C198.427 128.284 198.561 127.789 199.595 127.609C201.482 127.25 203.324 126.71 205.212 126.305C205.706 126.215 206.739 125.81 206.155 127.115C203.864 132.376 202.066 137.862 199.64 143.124C199.505 143.394 199.415 143.664 199.28 143.888C199.145 144.158 199.011 144.563 198.606 144.428C198.247 144.293 198.382 143.933 198.382 143.664C198.427 141.19 198.427 138.717 198.427 136.244ZM198.202 148.116C198.202 147.531 198.651 147.621 199.011 147.666C201.886 147.981 201.572 148.386 202.74 145.462C203.953 142.315 205.167 139.167 206.425 136.019C207.054 136.468 206.874 137.143 207.009 137.683C207.593 139.886 208.087 142.09 208.671 144.248C208.896 145.058 208.671 145.193 207.997 145.103C207.503 145.058 207.009 145.058 206.515 145.058C205.975 145.058 205.301 144.473 204.942 145.148C204.493 145.912 204.223 146.812 203.998 147.666C203.864 148.161 204.448 148.071 204.717 148.116C206.155 148.341 207.548 148.565 208.986 148.745C209.166 148.79 209.39 148.745 209.57 149.15C206.02 151.129 202.201 152.523 198.247 154.322C198.202 152.163 198.202 150.139 198.202 148.116ZM199.73 163.451C199.685 172.624 199.685 181.798 199.73 190.972C199.73 192.142 199.46 192.951 198.292 193.356C198.112 193.356 198.157 193.176 198.157 193.086C197.977 182.023 197.887 170.961 197.887 159.898C197.887 158.954 197.932 158.504 199.056 158.729C199.909 158.909 200.853 158.774 201.707 158.774C201.707 158.864 201.752 158.998 201.752 159.088C199.954 159.943 199.73 161.697 199.73 163.451ZM215.591 172.804C215.591 176.132 215.591 179.505 215.636 182.833C215.636 183.507 215.546 183.912 214.693 183.822C214.019 183.777 213.569 183.732 213.569 182.788C213.614 176.402 213.569 169.971 213.614 163.585C213.614 162.911 214.648 161.922 215.277 161.967C215.861 162.011 215.591 162.551 215.591 162.821C215.591 166.194 215.591 169.477 215.591 172.804ZM217.613 151.129C213.524 152.343 209.705 154.187 205.886 155.985C204.043 156.84 200.314 157.065 198.427 156.39C203.19 154.277 207.818 151.983 212.581 149.87C215.412 148.61 217.973 149.555 220.669 149.87C220.669 149.959 220.714 150.094 220.714 150.184C219.68 150.499 218.647 150.814 217.613 151.129Z" fill="#FDFDFE"/>
</svg>
