<svg width="268" height="268" viewBox="0 0 268 268" fill="none" xmlns="http://www.w3.org/2000/svg">
<rect width="268" height="268" rx="35" fill="#7B8FCB"/>
<path d="M84.1282 237V219.96H91.3282C92.0642 219.96 92.7362 220.112 93.3442 220.416C93.9522 220.72 94.4802 221.136 94.9282 221.664C95.3922 222.176 95.7442 222.752 95.9842 223.392C96.2402 224.016 96.3682 224.656 96.3682 225.312C96.3682 226.128 96.2082 226.896 95.8882 227.616C95.5842 228.336 95.1442 228.944 94.5682 229.44C94.0082 229.936 93.3442 230.264 92.5762 230.424L96.7522 237H94.8562L90.8482 230.712H85.8082V237H84.1282ZM85.8082 229.224H91.3762C92.0482 229.224 92.6322 229.04 93.1282 228.672C93.6242 228.304 94.0082 227.824 94.2802 227.232C94.5522 226.624 94.6882 225.984 94.6882 225.312C94.6882 224.624 94.5282 223.992 94.2082 223.416C93.9042 222.824 93.4882 222.352 92.9602 222C92.4482 221.632 91.8722 221.448 91.2322 221.448H85.8082V229.224ZM104.497 237.24C103.601 237.24 102.769 237.072 102.001 236.736C101.233 236.384 100.569 235.912 100.009 235.32C99.4489 234.712 99.0089 234.016 98.6889 233.232C98.3849 232.448 98.2329 231.608 98.2329 230.712C98.2329 229.544 98.4969 228.472 99.0249 227.496C99.5689 226.52 100.313 225.744 101.257 225.168C102.201 224.576 103.273 224.28 104.473 224.28C105.705 224.28 106.777 224.576 107.689 225.168C108.617 225.76 109.345 226.544 109.873 227.52C110.401 228.48 110.665 229.536 110.665 230.688C110.665 230.816 110.665 230.944 110.665 231.072C110.665 231.184 110.657 231.272 110.641 231.336H99.9369C100.017 232.232 100.265 233.032 100.681 233.736C101.113 234.424 101.665 234.976 102.337 235.392C103.025 235.792 103.769 235.992 104.569 235.992C105.385 235.992 106.153 235.784 106.873 235.368C107.609 234.952 108.121 234.408 108.409 233.736L109.825 234.12C109.569 234.712 109.177 235.248 108.649 235.728C108.121 236.208 107.497 236.584 106.777 236.856C106.073 237.112 105.313 237.24 104.497 237.24ZM99.8889 230.16H109.129C109.065 229.248 108.817 228.448 108.385 227.76C107.969 227.072 107.417 226.536 106.729 226.152C106.057 225.752 105.313 225.552 104.497 225.552C103.681 225.552 102.937 225.752 102.265 226.152C101.593 226.536 101.041 227.08 100.609 227.784C100.193 228.472 99.9529 229.264 99.8889 230.16ZM113.642 237V225.792H111.914V224.496H113.642V224.16C113.642 223.136 113.786 222.256 114.074 221.52C114.378 220.784 114.802 220.224 115.346 219.84C115.906 219.44 116.562 219.24 117.314 219.24C117.81 219.24 118.29 219.312 118.754 219.456C119.218 219.6 119.618 219.792 119.954 220.032L119.45 221.208C119.242 221.032 118.97 220.896 118.634 220.8C118.298 220.704 117.962 220.656 117.626 220.656C116.874 220.656 116.29 220.952 115.874 221.544C115.474 222.136 115.274 222.992 115.274 224.112V224.496H118.73V225.792H115.274V237H113.642ZM125.894 237.24C124.998 237.24 124.166 237.072 123.398 236.736C122.646 236.384 121.99 235.912 121.43 235.32C120.886 234.712 120.462 234.024 120.158 233.256C119.854 232.472 119.702 231.648 119.702 230.784C119.702 229.888 119.854 229.056 120.158 228.288C120.462 227.504 120.894 226.816 121.454 226.224C122.014 225.616 122.67 225.144 123.422 224.808C124.19 224.456 125.022 224.28 125.918 224.28C126.814 224.28 127.638 224.456 128.39 224.808C129.142 225.144 129.798 225.616 130.358 226.224C130.918 226.816 131.35 227.504 131.654 228.288C131.958 229.056 132.11 229.888 132.11 230.784C132.11 231.648 131.958 232.472 131.654 233.256C131.35 234.024 130.918 234.712 130.358 235.32C129.814 235.912 129.158 236.384 128.39 236.736C127.638 237.072 126.806 237.24 125.894 237.24ZM121.358 230.808C121.358 231.736 121.558 232.584 121.958 233.352C122.374 234.104 122.926 234.704 123.614 235.152C124.302 235.584 125.062 235.8 125.894 235.8C126.726 235.8 127.486 235.576 128.174 235.128C128.862 234.68 129.414 234.072 129.83 233.304C130.246 232.52 130.454 231.672 130.454 230.76C130.454 229.832 130.246 228.984 129.83 228.216C129.414 227.448 128.862 226.84 128.174 226.392C127.486 225.944 126.726 225.72 125.894 225.72C125.062 225.72 124.302 225.952 123.614 226.416C122.942 226.88 122.398 227.496 121.982 228.264C121.566 229.016 121.358 229.864 121.358 230.808ZM141.079 225.936C139.991 225.968 139.031 226.272 138.199 226.848C137.383 227.424 136.807 228.216 136.471 229.224V237H134.839V224.496H136.375V227.496C136.807 226.616 137.375 225.904 138.079 225.36C138.799 224.816 139.559 224.512 140.359 224.448C140.519 224.432 140.655 224.424 140.767 224.424C140.895 224.424 140.999 224.432 141.079 224.448V225.936ZM161.853 237H160.221V230.016C160.221 228.56 159.989 227.488 159.525 226.8C159.061 226.112 158.373 225.768 157.461 225.768C156.517 225.768 155.669 226.104 154.917 226.776C154.181 227.448 153.661 228.312 153.357 229.368V237H151.725V230.016C151.725 228.544 151.501 227.472 151.053 226.8C150.605 226.112 149.917 225.768 148.989 225.768C148.061 225.768 147.221 226.096 146.469 226.752C145.717 227.408 145.189 228.272 144.885 229.344V237H143.253V224.496H144.741V227.328C145.269 226.352 145.941 225.6 146.757 225.072C147.589 224.544 148.509 224.28 149.517 224.28C150.557 224.28 151.397 224.576 152.037 225.168C152.677 225.76 153.069 226.536 153.213 227.496C153.789 226.44 154.477 225.64 155.277 225.096C156.093 224.552 157.013 224.28 158.037 224.28C158.741 224.28 159.333 224.408 159.813 224.664C160.309 224.92 160.701 225.288 160.989 225.768C161.293 226.232 161.509 226.8 161.637 227.472C161.781 228.128 161.853 228.864 161.853 229.68V237ZM170.708 237.24C169.812 237.24 168.98 237.072 168.212 236.736C167.444 236.384 166.78 235.912 166.22 235.32C165.66 234.712 165.22 234.016 164.9 233.232C164.596 232.448 164.444 231.608 164.444 230.712C164.444 229.544 164.708 228.472 165.236 227.496C165.78 226.52 166.524 225.744 167.468 225.168C168.412 224.576 169.484 224.28 170.684 224.28C171.916 224.28 172.988 224.576 173.9 225.168C174.828 225.76 175.556 226.544 176.084 227.52C176.612 228.48 176.876 229.536 176.876 230.688C176.876 230.816 176.876 230.944 176.876 231.072C176.876 231.184 176.868 231.272 176.852 231.336H166.148C166.228 232.232 166.476 233.032 166.892 233.736C167.324 234.424 167.876 234.976 168.548 235.392C169.236 235.792 169.98 235.992 170.78 235.992C171.596 235.992 172.364 235.784 173.084 235.368C173.82 234.952 174.332 234.408 174.62 233.736L176.036 234.12C175.78 234.712 175.388 235.248 174.86 235.728C174.332 236.208 173.708 236.584 172.988 236.856C172.284 237.112 171.524 237.24 170.708 237.24ZM166.1 230.16H175.34C175.276 229.248 175.028 228.448 174.596 227.76C174.18 227.072 173.628 226.536 172.94 226.152C172.268 225.752 171.524 225.552 170.708 225.552C169.892 225.552 169.148 225.752 168.476 226.152C167.804 226.536 167.252 227.08 166.82 227.784C166.404 228.472 166.164 229.264 166.1 230.16ZM185.634 225.936C184.546 225.968 183.586 226.272 182.754 226.848C181.938 227.424 181.362 228.216 181.026 229.224V237H179.394V224.496H180.93V227.496C181.362 226.616 181.93 225.904 182.634 225.36C183.354 224.816 184.114 224.512 184.914 224.448C185.074 224.432 185.21 224.424 185.322 224.424C185.45 224.424 185.554 224.432 185.634 224.448V225.936Z" fill="white"/>
<path d="M166.037 136.891C161.855 136.228 157.724 135.514 153.542 134.851C147.576 133.882 141.609 132.964 135.642 132.046C129.012 131.026 122.382 130.006 115.753 128.935C109.888 128.017 104.074 127.049 98.2091 126.131C95.8122 125.774 93.4663 125.468 91.0694 125.111C90.0494 124.958 89.7944 124.193 90.4574 123.377C90.9164 122.816 91.5283 122.459 92.1913 122.153C93.3643 121.643 94.5882 121.235 95.8122 120.776C98.6171 119.705 98.5661 119.705 98.3621 116.747C98.2601 115.523 97.9541 114.758 96.4752 114.86C95.5572 114.962 94.6392 114.758 93.6703 114.605C91.5283 114.299 89.3354 114.044 87.3975 112.922C80.3087 108.944 73.1179 105.272 65.9271 101.498C62.2553 99.5604 62.2043 99.5604 62.3063 95.4295C62.3063 95.2765 62.3063 95.1745 62.3063 95.0215C62.2553 94.2056 62.5613 94.1036 63.2242 94.4606C65.5702 95.5315 67.9671 96.5005 70.313 97.5715C80.6657 102.365 90.8144 107.516 101.269 112.055C101.881 112.31 101.881 112.667 101.881 113.177C101.881 115.472 101.983 117.716 101.932 120.011C101.932 121.082 102.136 121.337 103.207 120.878C105.604 119.807 108.052 118.838 110.5 117.869C111.316 117.563 111.724 117.002 111.775 116.135C111.775 113.483 111.877 110.882 111.724 108.23C111.622 106.751 111.265 105.17 109.582 104.507C106.879 103.487 103.309 104.966 102.187 107.618C101.83 108.485 101.422 108.536 100.708 108.179C98.8721 107.312 96.9852 106.496 95.0982 105.629C84.6946 100.784 74.4439 95.5825 63.7852 91.1967C62.7652 90.7887 62.2553 90.2787 62.2553 89.1057C62.2553 87.5248 60.8783 86.4028 59.3484 86.4538C57.6144 86.5048 56.4415 87.5758 56.3905 89.2587C56.3395 90.6357 56.3905 92.0126 56.3905 93.3896C56.3395 96.4495 56.4415 96.2455 53.5855 95.1235C50.9336 94.0526 49.7607 92.5736 50.1686 89.6667C50.4236 87.6778 49.0467 86.4028 47.1087 86.4538C45.2218 86.4538 44.3038 87.5248 44.3038 89.7177C44.3038 96.4495 44.3038 103.181 44.4058 109.913C44.4568 111.953 44.0488 113.993 44.6098 116.033C44.7118 116.492 44.3548 116.645 43.9978 116.747C42.9269 117.104 41.9579 117.614 40.8869 117.92C39.51 118.328 39 119.246 39 120.623C39.051 123.989 39 127.304 39 130.669H39.051C39.051 134.035 39.051 137.35 39.051 140.716C39.051 142.603 39.765 143.47 41.6009 143.674C42.6209 143.827 43.6409 143.878 44.6608 143.98C46.2928 144.082 47.0067 143.47 47.3127 141.838C47.9247 138.574 48.5877 135.31 49.2507 131.995C49.3527 131.485 49.2507 130.669 50.3216 130.873C55.3195 131.791 60.3683 132.301 65.3662 133.066C75.2089 134.545 85.0005 136.432 94.7922 138.115C105.502 139.951 116.161 141.838 126.87 143.674C135.132 145.102 143.445 146.53 151.706 148.009C154.919 148.57 158.081 149.233 161.294 149.743C161.855 149.845 162.773 150.406 163.079 149.284C164.15 145.612 166.139 142.348 167.363 138.778C167.924 137.146 167.924 137.197 166.037 136.891ZM55.8295 112.157C53.9935 112.871 52.2086 113.585 50.2196 114.35V97.0105C52.2086 98.0304 54.0955 99.0504 55.9825 100.019C56.3395 100.223 56.2885 100.631 56.3395 100.988C56.3904 104.354 56.3905 107.771 56.4415 111.137C56.4415 111.647 56.3395 111.953 55.8295 112.157ZM79.2377 112.514C76.4328 112.106 73.6789 111.749 70.874 111.29C68.3241 110.882 65.7742 110.423 63.2242 110.066C62.5613 109.964 62.3063 109.811 62.3063 109.097C62.3573 107.21 62.3063 105.374 62.3063 103.181C68.0691 106.19 73.6789 109.199 79.3397 112.157C79.3397 112.361 79.2887 112.412 79.2377 112.514Z" fill="#FDFDFE"/>
<path d="M131.46 112.412C136.713 112.973 141.966 113.534 147.27 114.044C151.4 114.452 155.531 114.758 159.611 115.166C164.915 115.676 170.219 116.237 175.523 116.798C176.186 116.849 176.39 117.053 176.135 117.716C175.064 120.317 173.993 122.917 172.922 125.467C172.718 125.977 172.259 126.283 171.8 126.589C168.74 128.425 165.629 130.159 162.62 132.046C160.733 133.219 158.744 132.76 156.806 132.505C150.023 131.536 143.241 130.567 136.458 129.598C129.012 128.527 121.566 127.507 114.121 126.487C111.163 126.079 108.205 125.722 105.247 125.365C104.686 125.314 104.023 125.467 104.023 124.549C104.023 123.784 103.972 123.121 104.941 122.764C108.664 121.235 112.336 119.654 116.008 118.073C119.934 116.39 123.861 114.758 127.839 113.075C129.012 112.565 130.185 112.31 131.46 112.412Z" fill="#FDFDFE"/>
<path d="M226.266 135.004C226.317 136.381 226.215 137.758 226.317 139.135C226.419 140.512 225.45 141.532 224.43 142.348C219.994 146.02 215.557 149.692 211.12 153.313C207.805 156.016 207.805 155.965 207.193 160.198C206.785 163.104 206.275 166.011 205.765 168.867C205.408 171.009 203.011 172.59 200.869 172.284C198.982 172.029 197.095 171.672 195.208 171.519C194.29 171.417 194.035 170.958 193.882 170.193C193.117 165.654 192.352 161.167 191.638 156.628C191.485 155.659 191.281 155.149 190.108 154.945C185.111 154.18 180.113 153.211 175.115 152.344C173.483 152.038 173.534 152.089 174.197 150.559C175.727 146.989 177.308 143.47 178.787 139.9C179.144 139.084 179.501 138.778 180.47 138.982C186.182 140.053 191.944 141.073 197.656 142.093C200.512 142.603 203.368 143.062 206.224 143.521C207.754 143.776 209.029 143.011 210.202 142.195C213.823 139.594 217.444 136.993 221.013 134.341C222.492 133.27 223.92 132.148 225.399 131.026C226.062 130.516 226.317 130.618 226.317 131.485C226.215 132.658 226.266 133.831 226.266 135.004Z" fill="#FDFDFE"/>
<path d="M207.294 98.6424C202.858 100.886 198.778 103.691 194.545 106.241C194.341 106.343 194.188 106.496 193.984 106.598C190.159 108.026 188.476 111.086 186.997 114.707C182.101 126.793 176.95 138.778 171.902 150.814C171.035 152.905 169.658 153.619 167.975 152.905C166.19 152.191 165.476 150.508 166.292 148.468C168.893 142.195 171.596 135.922 174.247 129.649C177.358 122.306 180.418 114.962 183.172 107.465C184.192 104.711 185.875 102.722 188.374 101.243C194.29 97.7244 200.257 94.1545 206.172 90.5846C208.314 89.3097 210.405 87.9837 212.547 86.6578C214.536 85.4848 216.474 85.8928 217.596 87.7797C218.718 89.6667 218.208 92.2676 216.27 93.2365C214.893 93.8995 214.128 94.9195 213.465 96.2455C208.977 105.017 204.439 113.738 200.002 122.51C199.39 123.734 198.829 124.244 197.299 124.04C194.902 123.632 194.902 123.836 195.973 121.694C199.747 114.35 203.47 107.006 207.243 99.6623C207.345 99.4073 207.447 99.1524 207.549 98.9484C207.6 98.8464 207.702 98.7444 207.753 98.5914C207.804 98.5404 207.906 98.4384 207.906 98.4384C207.804 98.2854 207.702 98.3364 207.6 98.4384C207.498 98.4894 207.396 98.5914 207.294 98.6424Z" fill="#FDFDFE"/>
<path d="M226.674 125.162C226.929 126.539 226.164 127.508 224.94 128.426C219.738 132.148 214.587 135.871 209.487 139.696C207.6 141.073 205.713 141.532 203.368 141.022C200.002 140.257 196.534 139.798 193.117 139.288C192.046 139.135 191.587 138.778 191.587 137.554C191.587 135.769 192.301 134.494 193.729 133.474C199.645 129.395 205.56 125.366 211.425 121.184C213.516 119.705 215.709 120.113 217.953 120.419C219.687 120.674 221.37 120.929 223.104 121.133C225.909 121.337 226.674 122.102 226.674 125.162Z" fill="#FDFDFE"/>
<path d="M116.62 108.995C116.62 107.873 116.62 106.751 116.62 105.68C116.62 102.161 118.456 100.224 121.975 99.9686C124.576 99.7646 126.157 101.142 126.208 103.793C126.259 105.986 126.208 108.179 126.208 110.321C126.208 111.035 125.953 111.392 125.341 111.647C122.842 112.769 120.394 113.84 117.946 114.962C117.028 115.37 116.569 115.268 116.62 114.095C116.722 112.412 116.671 110.678 116.62 108.995Z" fill="#FDFDFE"/>
<path d="M197.503 126.641C196.075 127.508 194.647 128.426 193.219 129.293C192.301 129.905 191.383 130.568 190.414 131.129C188.884 131.996 188.017 133.169 188.323 135.056C188.476 135.922 188.017 136.177 187.252 136.024C186.793 135.922 186.283 135.82 185.824 135.769C182.152 135.362 182.203 135.412 182.254 131.792C182.254 130.976 182.56 130.415 183.172 130.007C183.529 129.803 183.835 129.497 184.192 129.344C186.691 128.273 187.66 126.488 187.201 123.785C186.997 122.612 187.252 121.388 187.201 120.164C187.15 118.991 187.66 119.144 188.374 119.552C189.649 120.317 190.261 121.49 190.312 122.969C190.312 125.111 190.363 125.162 192.454 125.519C194.086 125.774 195.769 125.978 197.452 126.233C197.401 126.386 197.452 126.488 197.503 126.641Z" fill="#FDFDFE"/>
<path d="M228 153.21C227.949 154.689 226.929 156.423 224.838 157.392C222.544 158.463 220.351 158.106 218.362 156.525C218.107 156.321 217.903 156.117 217.699 155.862C215.71 153.669 215.761 153.363 217.801 151.374C219.178 150.048 220.504 148.672 221.779 147.244C222.442 146.479 223.155 146.428 224.022 146.683C226.521 147.448 228 149.59 228 153.21Z" fill="#FDFDFE"/>
<path d="M214.588 169.785C214.435 171.876 213.364 173.61 211.324 174.732C209.539 175.752 207.754 175.956 205.867 174.936C204.949 174.426 204.694 173.967 205.714 173.253C207.601 171.927 207.856 169.785 208.162 167.694C208.315 166.776 208.417 165.859 208.468 164.941C208.519 164.074 208.927 163.819 209.743 163.921C212.191 164.125 214.588 166.929 214.588 169.785Z" fill="#FDFDFE"/>
<path d="M207.55 98.4384C207.652 98.3364 207.754 98.2854 207.856 98.4384C207.856 98.4384 207.754 98.5404 207.703 98.5914C207.652 98.5404 207.601 98.4894 207.55 98.4384Z" fill="#7B93D6"/>
<path d="M207.702 98.5912C207.651 98.6932 207.549 98.7952 207.498 98.9482C207.396 98.8462 207.345 98.7442 207.243 98.6422C207.345 98.5912 207.447 98.4892 207.498 98.4382C207.6 98.4892 207.651 98.5402 207.702 98.5912Z" fill="#7B93D6"/>
</svg>
