<svg width="268" height="268" viewBox="0 0 268 268" fill="none" xmlns="http://www.w3.org/2000/svg">
<rect width="268" height="268" rx="35" fill="#7B8FCB"/>
<path d="M65.4562 223.306C65.2362 223.057 64.9795 222.837 64.6862 222.646C64.3928 222.441 64.0628 222.265 63.6962 222.118C63.3295 221.971 62.9335 221.854 62.5082 221.766C62.0975 221.678 61.6575 221.634 61.1882 221.634C59.8242 221.634 58.8195 221.898 58.1742 222.426C57.5435 222.939 57.2282 223.643 57.2282 224.538C57.2282 225.154 57.3748 225.638 57.6682 225.99C57.9762 226.342 58.4528 226.628 59.0982 226.848C59.7435 227.068 60.5648 227.295 61.5622 227.53C62.6768 227.765 63.6375 228.043 64.4442 228.366C65.2508 228.689 65.8742 229.129 66.3142 229.686C66.7542 230.229 66.9742 230.969 66.9742 231.908C66.9742 232.627 66.8348 233.25 66.5562 233.778C66.2775 234.306 65.8888 234.746 65.3902 235.098C64.8915 235.45 64.2975 235.714 63.6082 235.89C62.9188 236.051 62.1635 236.132 61.3422 236.132C60.5355 236.132 59.7582 236.051 59.0102 235.89C58.2768 235.714 57.5802 235.465 56.9202 235.142C56.2602 234.805 55.6442 234.379 55.0722 233.866L55.8422 232.612C56.1208 232.905 56.4508 233.184 56.8322 233.448C57.2282 233.697 57.6608 233.925 58.1302 234.13C58.6142 234.335 59.1275 234.497 59.6702 234.614C60.2275 234.717 60.7995 234.768 61.3862 234.768C62.6328 234.768 63.6008 234.541 64.2902 234.086C64.9942 233.631 65.3462 232.957 65.3462 232.062C65.3462 231.417 65.1702 230.903 64.8182 230.522C64.4662 230.126 63.9382 229.803 63.2342 229.554C62.5302 229.305 61.6648 229.063 60.6382 228.828C59.5528 228.579 58.6362 228.3 57.8882 227.992C57.1402 227.684 56.5755 227.281 56.1942 226.782C55.8275 226.269 55.6442 225.594 55.6442 224.758C55.6442 223.79 55.8788 222.976 56.3482 222.316C56.8322 221.641 57.4922 221.135 58.3282 220.798C59.1642 220.446 60.1248 220.27 61.2102 220.27C61.8995 220.27 62.5375 220.343 63.1242 220.49C63.7255 220.622 64.2755 220.82 64.7742 221.084C65.2875 221.348 65.7642 221.678 66.2042 222.074L65.4562 223.306ZM75.2334 236.22C74.2801 236.22 73.4221 235.971 72.6594 235.472C71.9114 234.973 71.3174 234.357 70.8774 233.624V240.686H69.3814V224.538H70.7234V226.76C71.1781 226.041 71.7868 225.462 72.5494 225.022C73.3121 224.567 74.1261 224.34 74.9914 224.34C75.7834 224.34 76.5094 224.509 77.1694 224.846C77.8294 225.169 78.4014 225.609 78.8854 226.166C79.3694 226.723 79.7434 227.361 80.0074 228.08C80.2861 228.784 80.4254 229.517 80.4254 230.28C80.4254 231.351 80.2054 232.341 79.7654 233.25C79.3401 234.145 78.7388 234.863 77.9614 235.406C77.1841 235.949 76.2748 236.22 75.2334 236.22ZM74.8154 234.9C75.4461 234.9 76.0108 234.775 76.5094 234.526C77.0081 234.262 77.4334 233.91 77.7854 233.47C78.1521 233.03 78.4308 232.539 78.6214 231.996C78.8121 231.439 78.9074 230.867 78.9074 230.28C78.9074 229.664 78.7974 229.077 78.5774 228.52C78.3721 227.963 78.0714 227.471 77.6754 227.046C77.2794 226.621 76.8248 226.283 76.3114 226.034C75.7981 225.785 75.2408 225.66 74.6394 225.66C74.2581 225.66 73.8621 225.733 73.4514 225.88C73.0408 226.027 72.6448 226.239 72.2634 226.518C71.8968 226.782 71.5888 227.083 71.3394 227.42C71.0901 227.757 70.9361 228.117 70.8774 228.498V232.018C71.1121 232.561 71.4274 233.052 71.8234 233.492C72.2194 233.917 72.6741 234.262 73.1874 234.526C73.7154 234.775 74.2581 234.9 74.8154 234.9ZM82.9596 236V224.538H84.4556V236H82.9596ZM82.9596 222.14V219.94H84.4556V222.14H82.9596ZM97.3866 236H95.8906V229.598C95.8906 228.249 95.6926 227.266 95.2966 226.65C94.9006 226.019 94.2773 225.704 93.4266 225.704C92.8399 225.704 92.2606 225.851 91.6886 226.144C91.1166 226.423 90.6106 226.811 90.1706 227.31C89.7453 227.794 89.4373 228.351 89.2466 228.982V236H87.7506V224.538H89.1146V227.134C89.4226 226.577 89.8259 226.093 90.3246 225.682C90.8233 225.257 91.3879 224.927 92.0186 224.692C92.6493 224.457 93.3019 224.34 93.9766 224.34C94.6073 224.34 95.1426 224.457 95.5826 224.692C96.0226 224.927 96.3746 225.264 96.6386 225.704C96.9026 226.129 97.0933 226.65 97.2106 227.266C97.3279 227.867 97.3866 228.542 97.3866 229.29V236ZM105.527 236.22C104.705 236.22 103.943 236.066 103.239 235.758C102.535 235.435 101.926 235.003 101.413 234.46C100.899 233.903 100.496 233.265 100.203 232.546C99.9241 231.827 99.7848 231.057 99.7848 230.236C99.7848 229.165 100.027 228.183 100.511 227.288C101.009 226.393 101.691 225.682 102.557 225.154C103.422 224.611 104.405 224.34 105.505 224.34C106.634 224.34 107.617 224.611 108.453 225.154C109.303 225.697 109.971 226.415 110.455 227.31C110.939 228.19 111.181 229.158 111.181 230.214C111.181 230.331 111.181 230.449 111.181 230.566C111.181 230.669 111.173 230.749 111.159 230.808H101.347C101.42 231.629 101.647 232.363 102.029 233.008C102.425 233.639 102.931 234.145 103.547 234.526C104.177 234.893 104.859 235.076 105.593 235.076C106.341 235.076 107.045 234.885 107.705 234.504C108.379 234.123 108.849 233.624 109.113 233.008L110.411 233.36C110.176 233.903 109.817 234.394 109.333 234.834C108.849 235.274 108.277 235.619 107.617 235.868C106.971 236.103 106.275 236.22 105.527 236.22ZM101.303 229.73H109.773C109.714 228.894 109.487 228.161 109.091 227.53C108.709 226.899 108.203 226.408 107.573 226.056C106.957 225.689 106.275 225.506 105.527 225.506C104.779 225.506 104.097 225.689 103.481 226.056C102.865 226.408 102.359 226.907 101.963 227.552C101.581 228.183 101.361 228.909 101.303 229.73ZM118.37 228.08C118.37 227.127 118.532 226.195 118.854 225.286C119.192 224.362 119.676 223.526 120.306 222.778C120.937 222.015 121.714 221.414 122.638 220.974C123.562 220.519 124.611 220.292 125.784 220.292C127.178 220.292 128.366 220.615 129.348 221.26C130.346 221.891 131.079 222.705 131.548 223.702L130.338 224.45C130.001 223.761 129.576 223.218 129.062 222.822C128.549 222.411 127.999 222.118 127.412 221.942C126.84 221.766 126.268 221.678 125.696 221.678C124.758 221.678 123.929 221.869 123.21 222.25C122.492 222.617 121.883 223.115 121.384 223.746C120.9 224.362 120.534 225.059 120.284 225.836C120.035 226.599 119.91 227.376 119.91 228.168C119.91 229.033 120.057 229.862 120.35 230.654C120.644 231.446 121.054 232.15 121.582 232.766C122.11 233.367 122.726 233.851 123.43 234.218C124.149 234.57 124.926 234.746 125.762 234.746C126.349 234.746 126.95 234.643 127.566 234.438C128.182 234.233 128.754 233.917 129.282 233.492C129.825 233.067 130.258 232.517 130.58 231.842L131.856 232.502C131.534 233.279 131.035 233.939 130.36 234.482C129.686 235.025 128.93 235.435 128.094 235.714C127.273 235.993 126.466 236.132 125.674 236.132C124.604 236.132 123.621 235.905 122.726 235.45C121.832 234.981 121.054 234.365 120.394 233.602C119.749 232.825 119.25 231.959 118.898 231.006C118.546 230.038 118.37 229.063 118.37 228.08ZM139.062 236.22C138.241 236.22 137.478 236.066 136.774 235.758C136.085 235.435 135.484 235.003 134.97 234.46C134.472 233.903 134.083 233.272 133.804 232.568C133.526 231.849 133.386 231.094 133.386 230.302C133.386 229.481 133.526 228.718 133.804 228.014C134.083 227.295 134.479 226.665 134.992 226.122C135.506 225.565 136.107 225.132 136.796 224.824C137.5 224.501 138.263 224.34 139.084 224.34C139.906 224.34 140.661 224.501 141.35 224.824C142.04 225.132 142.641 225.565 143.154 226.122C143.668 226.665 144.064 227.295 144.342 228.014C144.621 228.718 144.76 229.481 144.76 230.302C144.76 231.094 144.621 231.849 144.342 232.568C144.064 233.272 143.668 233.903 143.154 234.46C142.656 235.003 142.054 235.435 141.35 235.758C140.661 236.066 139.898 236.22 139.062 236.22ZM134.904 230.324C134.904 231.175 135.088 231.952 135.454 232.656C135.836 233.345 136.342 233.895 136.972 234.306C137.603 234.702 138.3 234.9 139.062 234.9C139.825 234.9 140.522 234.695 141.152 234.284C141.783 233.873 142.289 233.316 142.67 232.612C143.052 231.893 143.242 231.116 143.242 230.28C143.242 229.429 143.052 228.652 142.67 227.948C142.289 227.244 141.783 226.687 141.152 226.276C140.522 225.865 139.825 225.66 139.062 225.66C138.3 225.66 137.603 225.873 136.972 226.298C136.356 226.723 135.858 227.288 135.476 227.992C135.095 228.681 134.904 229.459 134.904 230.324ZM152.982 225.858C151.985 225.887 151.105 226.166 150.342 226.694C149.594 227.222 149.066 227.948 148.758 228.872V236H147.262V224.538H148.67V227.288C149.066 226.481 149.587 225.829 150.232 225.33C150.892 224.831 151.589 224.553 152.322 224.494C152.469 224.479 152.594 224.472 152.696 224.472C152.814 224.472 152.909 224.479 152.982 224.494V225.858ZM160.695 225.858C159.698 225.887 158.818 226.166 158.055 226.694C157.307 227.222 156.779 227.948 156.471 228.872V236H154.975V224.538H156.383V227.288C156.779 226.481 157.3 225.829 157.945 225.33C158.605 224.831 159.302 224.553 160.035 224.494C160.182 224.479 160.307 224.472 160.409 224.472C160.527 224.472 160.622 224.479 160.695 224.494V225.858ZM167.273 236.22C166.452 236.22 165.689 236.066 164.985 235.758C164.281 235.435 163.672 235.003 163.159 234.46C162.646 233.903 162.242 233.265 161.949 232.546C161.67 231.827 161.531 231.057 161.531 230.236C161.531 229.165 161.773 228.183 162.257 227.288C162.756 226.393 163.438 225.682 164.303 225.154C165.168 224.611 166.151 224.34 167.251 224.34C168.38 224.34 169.363 224.611 170.199 225.154C171.05 225.697 171.717 226.415 172.201 227.31C172.685 228.19 172.927 229.158 172.927 230.214C172.927 230.331 172.927 230.449 172.927 230.566C172.927 230.669 172.92 230.749 172.905 230.808H163.093C163.166 231.629 163.394 232.363 163.775 233.008C164.171 233.639 164.677 234.145 165.293 234.526C165.924 234.893 166.606 235.076 167.339 235.076C168.087 235.076 168.791 234.885 169.451 234.504C170.126 234.123 170.595 233.624 170.859 233.008L172.157 233.36C171.922 233.903 171.563 234.394 171.079 234.834C170.595 235.274 170.023 235.619 169.363 235.868C168.718 236.103 168.021 236.22 167.273 236.22ZM163.049 229.73H171.519C171.46 228.894 171.233 228.161 170.837 227.53C170.456 226.899 169.95 226.408 169.319 226.056C168.703 225.689 168.021 225.506 167.273 225.506C166.525 225.506 165.843 225.689 165.227 226.056C164.611 226.408 164.105 226.907 163.709 227.552C163.328 228.183 163.108 228.909 163.049 229.73ZM180.207 236.22C179.371 236.22 178.601 236.066 177.897 235.758C177.208 235.435 176.599 234.995 176.071 234.438C175.558 233.881 175.154 233.243 174.861 232.524C174.582 231.805 174.443 231.043 174.443 230.236C174.443 229.151 174.685 228.161 175.169 227.266C175.653 226.371 176.328 225.66 177.193 225.132C178.058 224.604 179.056 224.34 180.185 224.34C181.256 224.34 182.202 224.589 183.023 225.088C183.844 225.572 184.453 226.232 184.849 227.068L183.397 227.53C183.074 226.943 182.62 226.489 182.033 226.166C181.461 225.829 180.823 225.66 180.119 225.66C179.356 225.66 178.66 225.858 178.029 226.254C177.398 226.65 176.892 227.193 176.511 227.882C176.144 228.571 175.961 229.356 175.961 230.236C175.961 231.101 176.152 231.886 176.533 232.59C176.914 233.294 177.42 233.859 178.051 234.284C178.682 234.695 179.378 234.9 180.141 234.9C180.64 234.9 181.116 234.812 181.571 234.636C182.04 234.46 182.444 234.225 182.781 233.932C183.133 233.624 183.368 233.294 183.485 232.942L184.959 233.382C184.754 233.925 184.409 234.416 183.925 234.856C183.456 235.281 182.898 235.619 182.253 235.868C181.622 236.103 180.94 236.22 180.207 236.22ZM192.809 235.45C192.692 235.494 192.509 235.575 192.259 235.692C192.01 235.809 191.709 235.912 191.357 236C191.005 236.088 190.624 236.132 190.213 236.132C189.788 236.132 189.385 236.051 189.003 235.89C188.637 235.729 188.343 235.487 188.123 235.164C187.903 234.827 187.793 234.416 187.793 233.932V225.726H186.209V224.538H187.793V220.666H189.289V224.538H191.929V225.726H189.289V233.514C189.319 233.925 189.465 234.233 189.729 234.438C190.008 234.643 190.323 234.746 190.675 234.746C191.086 234.746 191.46 234.68 191.797 234.548C192.135 234.401 192.34 234.299 192.413 234.24L192.809 235.45ZM199.369 236.22C198.548 236.22 197.785 236.066 197.081 235.758C196.392 235.435 195.79 235.003 195.277 234.46C194.778 233.903 194.39 233.272 194.111 232.568C193.832 231.849 193.693 231.094 193.693 230.302C193.693 229.481 193.832 228.718 194.111 228.014C194.39 227.295 194.786 226.665 195.299 226.122C195.812 225.565 196.414 225.132 197.103 224.824C197.807 224.501 198.57 224.34 199.391 224.34C200.212 224.34 200.968 224.501 201.657 224.824C202.346 225.132 202.948 225.565 203.461 226.122C203.974 226.665 204.37 227.295 204.649 228.014C204.928 228.718 205.067 229.481 205.067 230.302C205.067 231.094 204.928 231.849 204.649 232.568C204.37 233.272 203.974 233.903 203.461 234.46C202.962 235.003 202.361 235.435 201.657 235.758C200.968 236.066 200.205 236.22 199.369 236.22ZM195.211 230.324C195.211 231.175 195.394 231.952 195.761 232.656C196.142 233.345 196.648 233.895 197.279 234.306C197.91 234.702 198.606 234.9 199.369 234.9C200.132 234.9 200.828 234.695 201.459 234.284C202.09 233.873 202.596 233.316 202.977 232.612C203.358 231.893 203.549 231.116 203.549 230.28C203.549 229.429 203.358 228.652 202.977 227.948C202.596 227.244 202.09 226.687 201.459 226.276C200.828 225.865 200.132 225.66 199.369 225.66C198.606 225.66 197.91 225.873 197.279 226.298C196.663 226.723 196.164 227.288 195.783 227.992C195.402 228.681 195.211 229.459 195.211 230.324ZM213.289 225.858C212.292 225.887 211.412 226.166 210.649 226.694C209.901 227.222 209.373 227.948 209.065 228.872V236H207.569V224.538H208.977V227.288C209.373 226.481 209.894 225.829 210.539 225.33C211.199 224.831 211.896 224.553 212.629 224.494C212.776 224.479 212.9 224.472 213.003 224.472C213.12 224.472 213.216 224.479 213.289 224.494V225.858Z" fill="white"/>
<path d="M166.65 177.12C166.54 171.697 166.267 166.273 166.157 160.85C165.993 153.838 165.664 146.881 165.554 139.869C165.445 134.775 163.254 130.886 159.036 128.092C156.899 126.668 154.489 126.01 151.86 126.394C148.737 126.832 145.615 127.325 142.492 127.818C134.33 129.023 126.168 130.283 118.006 131.488C113.897 132.091 110.884 130.064 109.898 126.284C106.666 113.794 100.805 102.674 91.8209 93.3615C84.7543 86.021 76.5373 80.7621 66.3483 79.064C63.0615 78.5162 59.72 78.2971 56.4332 78.6805C55.0637 78.8449 53.6942 78.9544 52.4343 79.6118C52.2151 79.7213 52.0508 79.8309 51.8317 79.8857C46.7372 81.5291 42.6287 84.5967 39.5062 88.9243C34.4117 95.9909 33.3161 103.879 34.3569 112.315C35.2882 119.875 36.1647 127.434 37.1507 134.994C37.3698 136.637 37.5889 138.117 39.6706 138.774C60.3773 145.731 81.0841 152.798 101.791 159.864C122.059 166.766 142.328 173.669 162.542 180.68C164.021 181.173 165.226 181.338 166.267 180.023C166.76 179.147 166.65 178.106 166.65 177.12ZM73.8531 111.439C73.8531 119.272 73.8531 127.106 73.8531 134.885C73.8531 135.268 73.7436 135.706 74.0723 136.09C73.5245 138.664 70.2924 139.376 68.2108 136.911C67.3343 135.871 66.8961 134.665 66.8961 133.241C66.9509 125.791 66.8961 118.341 66.8961 110.891C66.8961 108.481 67.8821 106.947 69.6351 106.618C71.2785 106.29 73.141 107.604 73.9627 109.631C74.0723 109.85 74.0723 110.069 74.127 110.288C73.7436 110.617 73.8531 111.055 73.8531 111.439ZM87.7672 114.835C87.7672 122.943 87.7672 131.05 87.7672 139.157C87.7672 139.541 87.6576 139.979 87.9863 140.363C87.9863 141.677 87.3837 142.608 86.1238 143.211C84.8091 143.814 83.6587 143.43 82.6179 142.663C81.1936 141.568 80.4815 140.089 80.4815 138.336C80.4815 130.338 80.4815 122.395 80.5363 114.397C80.5363 114.013 80.6458 113.575 80.7006 113.192C80.9197 111.713 81.6866 110.562 83.1657 110.179C84.6447 109.741 85.7403 110.453 86.7812 111.439C87.4385 112.096 87.8768 112.808 87.9863 113.74C87.6576 113.959 87.7672 114.397 87.7672 114.835Z" fill="#FEFEFE"/>
<path d="M70.8402 76.5439C69.9637 76.1057 68.9777 76.0509 67.7178 75.8866C69.5803 75.1744 71.1689 74.5171 72.7575 73.9145C83.823 69.7512 94.779 65.1497 106.009 61.4795C108.803 60.5482 111.706 60.0004 114.554 59.3431C117.293 58.5214 120.142 58.7405 122.881 58.9596C132.851 59.5622 141.123 63.835 148.189 70.6825C156.844 79.1186 162.213 89.4172 164.842 101.14C165.5 103.989 165.007 104.975 162.432 106.289C148.244 113.52 134.056 120.642 119.813 127.763C117.622 128.859 116.034 128.585 114.828 127.051C114.39 126.503 114.226 125.9 114.061 125.298C110.994 113.685 105.735 103.167 97.8466 94.0734C91.6017 86.8425 84.2613 81.0359 75.0035 78.023C73.5792 77.5847 72.1002 77.4752 70.8402 76.5439Z" fill="#FEFEFE"/>
<path d="M221.375 139.212C220.882 140.143 220.224 140.91 219.293 141.567C204.338 151.701 189.383 161.891 174.428 172.08C173.114 173.011 171.799 173.942 170.429 174.873C169.717 175.257 169.717 175.202 169.498 173.997C169.443 173.011 169.608 171.97 169.334 170.984C169.279 170.6 169.224 170.272 169.224 169.888C169.389 164.301 169.06 158.658 168.841 153.071C168.622 147.319 168.841 141.567 168.348 135.87C167.855 130.063 162.212 124.421 156.241 123.819C153.174 123.49 150.216 124.147 147.258 124.585C143.861 125.078 140.465 125.572 137.069 126.174C136.466 126.284 135.644 126.558 135.425 125.955C135.206 125.298 136.083 125.078 136.576 124.805C146.6 119.546 156.57 114.232 166.54 108.864C168.567 107.768 170.703 107.111 172.949 106.673C185.494 104.262 197.984 101.852 210.528 99.6059C214.472 98.8938 219.129 101.797 220.772 105.906C221.375 107.385 221.703 108.918 221.703 110.507C221.648 114.835 221.703 119.108 221.703 123.435C221.703 128.42 221.703 133.35 221.703 138.335C221.758 138.554 221.594 138.883 221.375 139.212Z" fill="#FEFEFE"/>
<path d="M112.692 56.0015C115.212 54.3033 117.567 52.3861 120.416 51.1809C125.237 49.154 130.221 48.6062 135.371 49.2636C146.765 50.6331 155.365 56.7684 162.377 65.4236C168.622 73.1476 172.621 81.9671 174.922 91.6084C175.634 94.6212 178.263 97.3055 182.81 96.3742C190.534 94.7856 198.258 93.2518 205.982 91.7179C211.241 90.6771 216.445 89.472 221.758 88.6503C228.606 87.6094 233.646 92.3205 233.7 98.4558C233.7 111.055 233.7 123.709 233.7 136.309C233.7 138.993 231.783 140.308 229.208 139.486C227.839 139.048 226.579 138.281 225.155 138.062C224.497 137.459 224.717 136.692 224.717 135.98C224.717 127.106 224.552 118.231 224.771 109.412C224.936 101.414 218.855 95.6621 210.036 97.1959C199.408 99.0584 188.891 101.14 178.318 103.222C176.784 103.55 175.196 103.824 173.662 104.098C170.32 104.701 168.622 103.605 167.8 100.373C166.65 95.7716 165.335 91.2249 163.363 86.8973C161.117 82.0219 158.269 77.53 154.872 73.3667C150.216 67.6696 144.629 63.1777 138 60.0552C137.014 59.617 136.028 59.1787 135.042 58.8501C134.878 58.7953 134.768 58.7405 134.604 58.6857C130.769 57.4806 127.044 56.2206 122.936 56.1111C120.635 56.0563 118.334 56.1659 116.088 56.3302C115.047 56.385 114.116 57.0971 113.021 57.0971C112.692 57.0971 112.308 57.1519 112.144 56.8232C111.87 56.2754 112.308 56.1659 112.692 56.0015Z" fill="#FEFEFE"/>
<path d="M88.0407 140.308C87.6573 139.979 87.8216 139.541 87.8216 139.102C87.8216 130.995 87.8216 122.888 87.8216 114.78C87.8216 114.397 87.7121 113.959 88.0407 113.63C87.8764 113.959 87.9312 114.287 87.9312 114.561C87.9312 122.833 87.9312 131.05 87.9312 139.322C87.9312 139.65 87.8764 139.979 88.0407 140.308Z" fill="#8699D2"/>
<path d="M74.0721 136.144C73.7434 135.816 73.853 135.377 73.853 134.939C73.853 127.106 73.853 119.272 73.853 111.493C73.853 111.11 73.7434 110.672 74.0721 110.343C73.9078 110.617 73.9625 110.891 73.9625 111.165C73.9625 119.217 73.9625 127.27 73.9625 135.377C74.0173 135.596 73.9625 135.87 74.0721 136.144Z" fill="#8799D3"/>
<path d="M221.429 123.107C221.703 123.381 221.648 123.71 221.648 124.038C221.648 128.53 221.648 133.022 221.648 137.514C221.648 137.843 221.703 138.171 221.429 138.445C221.484 133.241 221.484 128.201 221.429 123.107Z" fill="#889BD5"/>
<path d="M169.882 173.997C169.389 172.956 169.717 171.916 169.663 170.82C170.046 171.861 169.827 172.956 169.882 173.997Z" fill="#889BD5"/>
</svg>
