<svg width="268" height="268" viewBox="0 0 268 268" fill="none" xmlns="http://www.w3.org/2000/svg">
<rect width="268" height="268" rx="35" fill="#7B8FCB"/>
<path d="M75.9824 220.49H77.4344L79.6344 226.034L81.8564 220.49H83.3304L80.6024 227.156L83.5944 234.218L89.2484 220.38H90.9204L84.2984 236H82.9344L79.6564 228.278L76.3564 236H75.0144L68.4144 220.38H70.0644L75.7404 234.218L78.7104 227.156L75.9824 220.49ZM91.8193 231.27V224.538H93.3153V231.006C93.3153 232.311 93.5353 233.287 93.9753 233.932C94.43 234.577 95.0973 234.9 95.9773 234.9C96.564 234.9 97.1286 234.775 97.6713 234.526C98.2286 234.262 98.72 233.895 99.1453 233.426C99.5706 232.942 99.8933 232.385 100.113 231.754V224.538H101.609V234.196C101.609 234.401 101.653 234.555 101.741 234.658C101.829 234.746 101.961 234.797 102.137 234.812V236C101.961 236.015 101.822 236.022 101.719 236.022C101.617 236.037 101.521 236.044 101.433 236.044C101.14 236.015 100.883 235.897 100.663 235.692C100.458 235.487 100.348 235.237 100.333 234.944L100.289 233.404C99.7906 234.284 99.1086 234.973 98.2433 235.472C97.3926 235.971 96.4686 236.22 95.4713 236.22C94.2686 236.22 93.3593 235.802 92.7433 234.966C92.1273 234.13 91.8193 232.898 91.8193 231.27ZM114.628 236H113.132V229.598C113.132 228.249 112.934 227.266 112.538 226.65C112.142 226.019 111.518 225.704 110.668 225.704C110.081 225.704 109.502 225.851 108.93 226.144C108.358 226.423 107.852 226.811 107.412 227.31C106.986 227.794 106.678 228.351 106.488 228.982V236H104.992V224.538H106.356V227.134C106.664 226.577 107.067 226.093 107.566 225.682C108.064 225.257 108.629 224.927 109.26 224.692C109.89 224.457 110.543 224.34 111.218 224.34C111.848 224.34 112.384 224.457 112.824 224.692C113.264 224.927 113.616 225.264 113.88 225.704C114.144 226.129 114.334 226.65 114.452 227.266C114.569 227.867 114.628 228.542 114.628 229.29V236ZM117.048 230.302C117.048 229.217 117.268 228.227 117.708 227.332C118.163 226.423 118.786 225.697 119.578 225.154C120.37 224.611 121.272 224.34 122.284 224.34C123.237 224.34 124.088 224.597 124.836 225.11C125.599 225.609 126.193 226.217 126.618 226.936V219.94H128.114V234.196C128.114 234.401 128.158 234.555 128.246 234.658C128.334 234.746 128.466 234.797 128.642 234.812V236C128.349 236.044 128.121 236.059 127.96 236.044C127.652 236.029 127.381 235.905 127.146 235.67C126.911 235.435 126.794 235.179 126.794 234.9V233.778C126.339 234.526 125.723 235.12 124.946 235.56C124.169 236 123.362 236.22 122.526 236.22C121.734 236.22 121.001 236.059 120.326 235.736C119.666 235.413 119.087 234.973 118.588 234.416C118.104 233.859 117.723 233.228 117.444 232.524C117.18 231.805 117.048 231.065 117.048 230.302ZM126.618 232.062V228.52C126.427 227.992 126.119 227.515 125.694 227.09C125.269 226.65 124.785 226.305 124.242 226.056C123.714 225.792 123.186 225.66 122.658 225.66C122.042 225.66 121.485 225.792 120.986 226.056C120.487 226.305 120.055 226.65 119.688 227.09C119.336 227.53 119.065 228.029 118.874 228.586C118.683 229.143 118.588 229.715 118.588 230.302C118.588 230.918 118.691 231.505 118.896 232.062C119.116 232.619 119.424 233.118 119.82 233.558C120.216 233.983 120.671 234.313 121.184 234.548C121.697 234.783 122.255 234.9 122.856 234.9C123.237 234.9 123.633 234.827 124.044 234.68C124.455 234.533 124.843 234.335 125.21 234.086C125.591 233.822 125.907 233.514 126.156 233.162C126.405 232.81 126.559 232.443 126.618 232.062ZM130.58 232.7C130.58 231.981 130.785 231.365 131.196 230.852C131.606 230.324 132.171 229.921 132.89 229.642C133.623 229.349 134.466 229.202 135.42 229.202C135.977 229.202 136.556 229.246 137.158 229.334C137.759 229.422 138.294 229.554 138.764 229.73V228.762C138.764 227.794 138.478 227.024 137.906 226.452C137.334 225.88 136.542 225.594 135.53 225.594C134.914 225.594 134.305 225.711 133.704 225.946C133.117 226.166 132.501 226.496 131.856 226.936L131.284 225.88C132.032 225.367 132.765 224.985 133.484 224.736C134.202 224.472 134.936 224.34 135.684 224.34C137.092 224.34 138.206 224.743 139.028 225.55C139.849 226.357 140.26 227.471 140.26 228.894V234.196C140.26 234.401 140.304 234.555 140.392 234.658C140.48 234.746 140.619 234.797 140.81 234.812V236C140.648 236.015 140.509 236.029 140.392 236.044C140.274 236.059 140.186 236.059 140.128 236.044C139.761 236.029 139.482 235.912 139.292 235.692C139.101 235.472 138.998 235.237 138.984 234.988L138.962 234.152C138.448 234.812 137.781 235.325 136.96 235.692C136.138 236.044 135.302 236.22 134.452 236.22C133.718 236.22 133.051 236.066 132.45 235.758C131.863 235.435 131.401 235.01 131.064 234.482C130.741 233.939 130.58 233.345 130.58 232.7ZM138.258 233.58C138.419 233.375 138.544 233.177 138.632 232.986C138.72 232.795 138.764 232.627 138.764 232.48V230.808C138.265 230.617 137.744 230.471 137.202 230.368C136.674 230.265 136.138 230.214 135.596 230.214C134.525 230.214 133.66 230.427 133 230.852C132.34 231.277 132.01 231.857 132.01 232.59C132.01 233.015 132.12 233.419 132.34 233.8C132.56 234.167 132.882 234.475 133.308 234.724C133.733 234.959 134.232 235.076 134.804 235.076C135.522 235.076 136.19 234.937 136.806 234.658C137.436 234.379 137.92 234.02 138.258 233.58ZM148.373 228.08C148.373 227.127 148.535 226.195 148.857 225.286C149.195 224.362 149.679 223.526 150.309 222.778C150.94 222.015 151.717 221.414 152.641 220.974C153.565 220.519 154.614 220.292 155.787 220.292C157.181 220.292 158.369 220.615 159.351 221.26C160.349 221.891 161.082 222.705 161.551 223.702L160.341 224.45C160.004 223.761 159.579 223.218 159.065 222.822C158.552 222.411 158.002 222.118 157.415 221.942C156.843 221.766 156.271 221.678 155.699 221.678C154.761 221.678 153.932 221.869 153.213 222.25C152.495 222.617 151.886 223.115 151.387 223.746C150.903 224.362 150.537 225.059 150.287 225.836C150.038 226.599 149.913 227.376 149.913 228.168C149.913 229.033 150.06 229.862 150.353 230.654C150.647 231.446 151.057 232.15 151.585 232.766C152.113 233.367 152.729 233.851 153.433 234.218C154.152 234.57 154.929 234.746 155.765 234.746C156.352 234.746 156.953 234.643 157.569 234.438C158.185 234.233 158.757 233.917 159.285 233.492C159.828 233.067 160.261 232.517 160.583 231.842L161.859 232.502C161.537 233.279 161.038 233.939 160.363 234.482C159.689 235.025 158.933 235.435 158.097 235.714C157.276 235.993 156.469 236.132 155.677 236.132C154.607 236.132 153.624 235.905 152.729 235.45C151.835 234.981 151.057 234.365 150.397 233.602C149.752 232.825 149.253 231.959 148.901 231.006C148.549 230.038 148.373 229.063 148.373 228.08ZM173.817 236H172.321V229.598C172.321 228.307 172.094 227.339 171.639 226.694C171.185 226.034 170.532 225.704 169.681 225.704C169.124 225.704 168.567 225.851 168.009 226.144C167.467 226.423 166.983 226.811 166.557 227.31C166.147 227.794 165.853 228.351 165.677 228.982V236H164.181V219.94H165.677V227.134C166.132 226.283 166.763 225.609 167.569 225.11C168.391 224.597 169.263 224.34 170.187 224.34C170.847 224.34 171.405 224.457 171.859 224.692C172.329 224.927 172.703 225.271 172.981 225.726C173.275 226.166 173.487 226.687 173.619 227.288C173.751 227.875 173.817 228.542 173.817 229.29V236ZM176.083 232.7C176.083 231.981 176.289 231.365 176.699 230.852C177.11 230.324 177.675 229.921 178.393 229.642C179.127 229.349 179.97 229.202 180.923 229.202C181.481 229.202 182.06 229.246 182.661 229.334C183.263 229.422 183.798 229.554 184.267 229.73V228.762C184.267 227.794 183.981 227.024 183.409 226.452C182.837 225.88 182.045 225.594 181.033 225.594C180.417 225.594 179.809 225.711 179.207 225.946C178.621 226.166 178.005 226.496 177.359 226.936L176.787 225.88C177.535 225.367 178.269 224.985 178.987 224.736C179.706 224.472 180.439 224.34 181.187 224.34C182.595 224.34 183.71 224.743 184.531 225.55C185.353 226.357 185.763 227.471 185.763 228.894V234.196C185.763 234.401 185.807 234.555 185.895 234.658C185.983 234.746 186.123 234.797 186.313 234.812V236C186.152 236.015 186.013 236.029 185.895 236.044C185.778 236.059 185.69 236.059 185.631 236.044C185.265 236.029 184.986 235.912 184.795 235.692C184.605 235.472 184.502 235.237 184.487 234.988L184.465 234.152C183.952 234.812 183.285 235.325 182.463 235.692C181.642 236.044 180.806 236.22 179.955 236.22C179.222 236.22 178.555 236.066 177.953 235.758C177.367 235.435 176.905 235.01 176.567 234.482C176.245 233.939 176.083 233.345 176.083 232.7ZM183.761 233.58C183.923 233.375 184.047 233.177 184.135 232.986C184.223 232.795 184.267 232.627 184.267 232.48V230.808C183.769 230.617 183.248 230.471 182.705 230.368C182.177 230.265 181.642 230.214 181.099 230.214C180.029 230.214 179.163 230.427 178.503 230.852C177.843 231.277 177.513 231.857 177.513 232.59C177.513 233.015 177.623 233.419 177.843 233.8C178.063 234.167 178.386 234.475 178.811 234.724C179.237 234.959 179.735 235.076 180.307 235.076C181.026 235.076 181.693 234.937 182.309 234.658C182.94 234.379 183.424 234.02 183.761 233.58ZM188.996 236V224.538H190.492V236H188.996ZM188.996 222.14V219.94H190.492V222.14H188.996ZM199.507 225.858C198.509 225.887 197.629 226.166 196.867 226.694C196.119 227.222 195.591 227.948 195.283 228.872V236H193.787V224.538H195.195V227.288C195.591 226.481 196.111 225.829 196.757 225.33C197.417 224.831 198.113 224.553 198.847 224.494C198.993 224.479 199.118 224.472 199.221 224.472C199.338 224.472 199.433 224.479 199.507 224.494V225.858Z" fill="white"/>
<path d="M203.648 96.2099C203.648 96.6348 203.648 97.0597 203.648 97.442C203.648 99.184 203.648 100.926 203.648 102.625C203.818 106.789 204.158 110.953 204.498 115.117C204.837 119.238 205.347 123.316 206.112 127.353C206.452 129.307 206.919 131.219 207.302 133.131C207.344 135.128 207.344 137.125 207.387 139.122C207.387 140.524 207.302 141.926 207.387 143.328C207.472 144.347 207.004 144.985 206.197 145.452C204.71 146.302 203.095 146.982 201.481 147.619C186.568 153.907 171.698 160.28 157.04 167.163C157.04 167.035 156.997 166.908 156.997 166.78C156.955 152.802 156.87 138.824 157.252 124.803C157.337 121.659 157.465 118.515 157.72 115.414C158.187 110.316 158.569 105.217 159.122 100.119C159.547 96.0825 160.141 92.0887 160.949 88.095C162.351 81.2121 164.305 74.4992 168.044 68.4661C168.979 66.9366 169.828 65.2371 171.655 64.6423C175.861 63.2402 180.195 62.2206 184.529 61.1584C191.964 59.3315 199.399 57.5045 206.792 55.6351C208.109 55.3377 208.024 55.3377 207.939 56.6548C207.472 62.5604 205.73 68.2961 205.135 74.1593C204.71 78.1531 204.413 82.1893 204.073 86.2255C203.945 87.5426 203.945 88.8597 203.86 90.1768C203.818 92.2587 203.733 94.2131 203.648 96.2099Z" fill="#FEFEFE"/>
<path d="M79.9263 88.52C82.433 88.9874 84.9397 89.4122 87.4464 89.8796C93.607 91.0267 99.7676 92.1314 105.971 93.2785C112.684 94.5106 119.354 95.7003 126.067 96.8899C129.423 97.4847 132.78 98.122 136.136 98.7168C137.198 98.8868 137.963 99.3966 138.6 100.331C141.49 104.368 144.803 108.064 147.905 111.93C149.52 113.927 151.177 115.881 152.833 117.836C153.173 118.261 153.258 118.686 153.258 119.195C153.046 125.526 152.621 131.814 152.706 138.145C152.706 138.824 152.494 138.994 151.814 138.867C147.523 138.017 143.189 137.21 138.855 136.318C132.015 134.958 125.217 133.513 118.377 132.239C116.592 131.899 115.573 130.794 114.553 129.605C113.151 127.99 111.749 126.376 110.347 124.719C110.262 124.634 110.134 124.549 110.049 124.464C110.049 124.251 109.922 124.081 109.752 123.996C109.455 123.657 109.157 123.317 108.86 123.019C108.775 122.934 108.647 122.849 108.562 122.764C108.562 122.552 108.435 122.382 108.265 122.297C107.968 121.957 107.67 121.617 107.373 121.277C107.245 121.192 107.16 121.107 107.033 121.022L107.075 120.98C107.075 120.895 107.075 120.852 107.033 120.81C106.735 120.47 106.438 120.13 106.098 119.79C106.013 119.705 105.886 119.62 105.801 119.535C105.801 119.323 105.673 119.153 105.503 119.068C105.206 118.728 104.908 118.388 104.611 118.048C104.484 117.921 104.399 117.793 104.271 117.708C104.101 117.241 103.676 116.901 103.336 116.561C103.251 116.476 103.124 116.391 103.039 116.306C102.954 116.136 102.827 115.966 102.742 115.839C102.444 115.499 102.147 115.159 101.849 114.819C101.764 114.734 101.637 114.649 101.552 114.564C101.552 114.352 101.425 114.182 101.255 114.097C100.957 113.757 100.66 113.417 100.362 113.12C100.235 113.035 100.15 112.95 100.022 112.865H100.065C100.065 112.652 99.9375 112.483 99.7676 112.355C99.5551 112.1 99.3427 111.845 99.1303 111.633C99.0453 111.548 98.9178 111.463 98.8329 111.378C98.8329 111.165 98.7054 110.995 98.5355 110.911C98.238 110.571 97.9406 110.231 97.6432 109.891C97.5583 109.806 97.4308 109.721 97.3458 109.636C97.3458 109.423 97.2184 109.254 97.0484 109.169C96.751 108.829 96.4536 108.489 96.1987 108.149C96.0712 107.979 95.9438 107.851 95.8163 107.682C95.4339 107.257 95.0515 106.832 94.7116 106.407C94.5842 106.237 94.4567 106.067 94.3293 105.94C94.0319 105.6 93.7345 105.26 93.437 104.92C93.3521 104.835 93.2246 104.75 93.1396 104.665C93.1396 104.453 93.0122 104.283 92.8422 104.198C92.5448 103.858 92.2474 103.518 91.95 103.22C91.8225 103.05 91.6951 102.923 91.6101 102.753C91.2277 102.328 90.8454 101.903 90.5055 101.478C90.378 101.309 90.2505 101.139 90.1231 101.011C89.8257 100.671 89.5283 100.331 89.2309 99.9914C89.1459 99.9065 89.0184 99.8215 88.9335 99.7365C88.891 99.5666 88.806 99.4391 88.6361 99.4391C88.5511 99.3116 88.4236 99.1417 88.3386 99.0142C86.0868 96.0827 83.6226 93.3635 81.2009 90.5594C80.861 90.2195 80.5636 89.8796 80.2237 89.5822C80.2237 89.3698 80.1387 89.1998 79.9263 89.0723C79.9263 88.8174 79.9263 88.6475 79.9263 88.52Z" fill="#FEFEFE"/>
<path d="M207.344 51.9814C204.03 52.4488 200.843 53.341 197.572 54.0633C188.267 56.1451 178.963 58.2695 169.616 60.3513C168.001 60.6912 166.344 60.1814 164.73 60.0114C161.543 59.6715 158.399 58.8643 155.17 58.7368C155.085 58.7368 155.043 58.7368 154.958 58.7368C154.49 58.3969 153.98 58.3544 153.428 58.5244C153.343 58.5244 153.301 58.5244 153.216 58.5244C152.833 58.0995 152.366 58.3119 151.899 58.2695C151.771 58.2695 151.601 58.2695 151.474 58.2695C151.006 57.9296 150.497 57.8871 149.944 58.0145C149.859 58.0145 149.817 58.0145 149.732 58.0145C149.349 57.5897 148.882 57.8021 148.457 57.7596C148.33 57.7596 148.16 57.7596 148.032 57.7596C146.418 57.2073 144.718 57.0798 143.019 56.9949C142.849 56.9949 142.721 56.9949 142.552 56.9949C142.084 56.655 141.574 56.6125 141.022 56.7824C140.937 56.7824 140.895 56.7824 140.81 56.7824C140.427 56.3576 139.96 56.5275 139.535 56.57C139.45 56.5275 139.408 56.5275 139.323 56.5275C138.855 56.1026 138.303 56.2726 137.793 56.2726C137.283 55.7627 136.603 56.1876 136.051 55.9327C131.25 55.083 126.449 54.4457 121.648 53.8084C117.739 53.256 113.831 52.7037 109.922 52.1514C106.693 51.684 103.464 51.2592 100.235 50.8343C98.7902 50.6219 98.5353 50.197 99.1301 48.8799C99.9798 46.8405 101.849 46.5006 103.676 46.2032C114.255 44.3338 124.835 42.5069 135.414 40.68C135.541 40.68 135.626 40.5525 135.754 40.51C137.113 40.51 138.473 40.51 139.832 40.51C142.169 40.8074 144.463 41.1473 146.8 41.4447C150.582 41.9121 154.32 42.3369 158.102 42.8043C161.925 43.2716 165.792 43.739 169.616 44.2064C173.269 44.6312 176.881 45.0986 180.535 45.5234C184.273 45.9908 187.97 46.4582 191.709 46.9255C195.872 47.4353 200.036 47.9452 204.2 48.4975C206.027 48.7099 206.961 49.9846 207.556 51.599C207.599 51.6415 207.556 51.854 207.344 51.9814Z" fill="#FEFEFE"/>
<path d="M90.6755 150.126C90.8455 150.083 91.0154 150.041 91.1429 149.956C95.3491 148.341 99.5553 146.727 103.761 145.112C103.846 145.07 103.931 144.985 104.016 144.942C104.314 144.9 104.611 144.9 104.781 144.645C105.461 144.517 106.098 144.305 106.693 143.965C107.458 143.838 108.18 143.625 108.817 143.2C108.86 143.2 108.902 143.2 108.945 143.158C109.285 143.073 109.625 142.945 109.922 142.86C113.448 141.373 117.017 141.798 120.586 142.775C121.308 142.945 122.031 143.073 122.753 143.2C123.05 143.498 123.475 143.413 123.815 143.455C123.985 143.498 124.155 143.583 124.325 143.625C124.58 143.668 124.792 143.668 125.047 143.71C125.302 144.05 125.727 143.88 126.067 143.965C126.237 144.007 126.407 144.092 126.577 144.135C126.747 144.135 126.874 144.177 127.044 144.177C127.214 144.262 127.427 144.305 127.596 144.39C127.851 144.432 128.106 144.475 128.361 144.475C129.169 144.687 130.018 144.9 130.825 145.112C131.08 145.155 131.293 145.155 131.548 145.197C131.803 145.537 132.228 145.41 132.567 145.452C132.737 145.495 132.907 145.579 133.077 145.622C133.247 145.622 133.417 145.664 133.545 145.664C134.947 146.132 136.349 146.472 137.793 146.642C138.006 146.812 138.261 146.939 138.558 146.854C142.977 147.831 147.353 148.851 151.771 149.786C152.494 149.956 152.706 150.211 152.706 150.89C152.664 152.547 152.664 154.204 152.706 155.861C152.706 156.499 152.494 156.796 151.941 157.051C145.313 159.982 138.728 162.957 132.058 165.846C129.466 166.993 126.662 166.908 123.9 166.525C123.73 166.525 123.56 166.483 123.39 166.483C121.478 166.101 119.609 165.761 117.697 165.378C117.527 165.336 117.357 165.293 117.187 165.208C116.55 165.081 115.87 164.953 115.233 164.826C115.148 164.783 115.063 164.783 114.978 164.741C113.151 164.401 111.367 163.849 109.54 163.679C109.285 163.339 108.86 163.466 108.52 163.424C107.84 162.999 107.033 162.999 106.268 162.829C97.8983 160.79 89.5709 158.75 81.201 156.796C80.2238 156.584 79.714 156.031 79.1191 155.139C82.3906 153.694 85.6196 152.25 88.8911 150.805C89.0185 150.72 89.1885 150.678 89.316 150.593C89.5709 150.55 89.7833 150.55 89.9533 150.338C89.9957 150.38 90.0382 150.338 90.0807 150.295C90.3356 150.38 90.5056 150.338 90.6755 150.126Z" fill="#FEFEFE"/>
<path d="M122.413 85.7584C126.492 86.3532 130.528 86.9905 134.607 87.5853C136.986 87.9677 139.365 88.4351 141.787 88.7325C143.444 88.9024 144.463 89.6672 145.271 91.1117C147.438 95.0205 150.497 98.292 153.258 101.776C154.108 102.838 154.703 103.815 154.49 105.217C154.108 107.767 154.405 110.401 153.853 113.12C151.771 110.571 149.774 108.106 147.777 105.685C145.526 102.923 143.231 100.246 140.98 97.4847C140.087 96.3801 138.94 95.8277 137.623 95.6153C131.335 94.5106 125.047 93.406 118.759 92.3438C118.504 92.3013 118.249 92.3438 118.037 92.3438C117.909 92.3438 117.739 92.3438 117.612 92.3438C117.229 91.919 116.762 92.1314 116.337 92.1314C116.252 92.1314 116.21 92.0889 116.125 92.0889C114.765 91.5791 113.278 91.4516 111.876 91.1967C109.072 90.6868 106.225 90.262 103.379 89.7946C103.251 89.7946 103.166 89.8371 103.039 89.8371C102.062 89.3273 101 89.3273 99.9374 89.3273H99.9799C98.068 88.605 95.9861 88.52 93.9893 88.1376C90.123 87.4154 86.2142 86.8206 82.3479 86.2257C80.7759 85.9708 79.1614 85.8434 77.5894 85.6309C77.3345 85.4185 77.5894 85.2485 77.6744 85.1211C78.694 83.719 79.7987 82.3594 80.6909 80.8724C81.5407 79.4279 82.7728 79.2154 84.2173 79.4704C88.9333 80.3626 93.6494 81.2973 98.4504 82.0196C103.506 82.7843 108.52 83.5916 113.576 84.3988C116.38 84.7812 119.396 85.2485 122.413 85.7584Z" fill="#FDFDFE"/>
<path d="M122.88 169.712C128.319 171.072 133.29 169.542 138.133 167.205C142.679 165.038 147.31 163.127 151.899 161.045C152.664 160.705 152.918 160.79 152.876 161.682C152.833 163.212 152.833 164.741 152.918 166.271C152.961 167.205 152.833 167.885 151.771 168.097C151.559 168.14 151.346 168.352 151.134 168.48C150.922 168.48 150.709 168.48 150.624 168.735C150.412 168.735 150.199 168.777 150.029 168.99C145.951 170.817 141.872 172.644 137.793 174.555C136.646 175.108 135.456 175.533 134.224 175.83C133.714 175.873 133.247 175.915 132.737 176C132.227 176 131.718 176 131.25 176C130.613 175.958 129.933 175.915 129.296 175.873C107.288 172.006 85.577 166.61 63.9088 161.215C63.144 161.045 62.3793 160.832 61.657 160.62C60.5098 160.28 60.0425 159.388 60 158.283C60 157.178 60.6798 156.584 61.6995 156.286C68.6248 154.204 75.5926 152.122 82.518 149.998C83.7501 149.616 84.9397 149.913 86.3843 150.211C82.263 151.783 78.4817 153.567 74.488 154.884C74.1906 154.969 73.8507 155.097 73.5533 155.224C72.661 155.606 72.4061 156.371 72.3636 157.221C72.3212 158.113 73.0009 158.411 73.6807 158.665C76.9947 159.77 80.4786 160.28 83.8775 161.172C94.7117 163.934 105.631 166.398 116.592 168.565C117.23 168.692 117.909 168.777 118.547 168.905C118.674 169.075 118.844 169.117 119.057 169.075C120.119 169.287 121.181 169.457 122.286 169.669C122.54 169.627 122.71 169.669 122.88 169.712Z" fill="#FDFDFE"/>
<path d="M130.103 59.1616C141.914 60.861 153.726 62.603 165.622 64.3024C164.772 65.7045 163.965 67.0641 163.158 68.4237C162.903 68.8485 162.563 68.7636 162.096 68.7211C159.716 68.4237 157.337 67.9138 154.915 67.8713C154.83 67.8713 154.788 67.8713 154.703 67.8713C152.494 67.3615 150.242 66.9791 147.948 66.8516C147.82 66.8516 147.65 66.8516 147.523 66.8516C147.055 66.5118 146.545 66.4268 145.993 66.5967C145.908 66.5967 145.866 66.5967 145.781 66.5967C144.804 66.2144 143.784 66.0444 142.722 66.0869H142.637L142.552 66.1294C141.999 65.7045 141.32 65.8745 140.725 65.9169C140.64 65.9169 140.597 65.9169 140.512 65.9169C140.13 65.4921 139.663 65.662 139.238 65.7045C139.068 65.7045 138.94 65.7045 138.77 65.7045C137.878 65.3221 136.943 65.1947 135.966 65.1947C135.839 65.1947 135.669 65.1947 135.541 65.1947C133.417 64.5149 131.208 64.5574 129.041 64.09C128.871 64.0475 128.701 64.005 128.531 63.9625C128.106 63.8776 127.724 63.8351 127.299 63.7501C127.214 63.7501 127.129 63.7076 127.044 63.7076C125.047 63.4102 123.093 63.1553 121.096 62.8579C120.883 62.6455 120.586 62.6879 120.331 62.6879C118.419 62.4755 116.55 61.9232 114.595 61.8807C112.344 61.4983 110.092 61.0735 107.798 60.7336C105.333 60.3512 102.827 60.0538 100.362 59.5864C99.7676 59.5014 99.5126 59.6714 99.2577 60.0963C96.0712 65.3221 93.9044 70.9304 92.9697 77.006C92.6723 78.9604 92.7148 78.9604 90.8029 78.8329C90.463 78.7904 90.1656 78.7479 89.8257 78.663C87.6588 78.2381 87.5739 78.2381 88.0412 76.0713C89.6132 69.0185 92.1624 62.3481 96.3261 56.3999C97.2184 55.0828 98.2805 54.4455 99.98 54.7429C104.696 55.5077 109.412 56.145 114.128 56.8248C119.099 57.5471 124.07 58.3118 128.998 59.0341C129.466 59.0341 129.763 59.1191 130.103 59.1616Z" fill="#FDFDFE"/>
<path d="M85.1096 100.459C85.492 100.883 85.8744 101.266 86.2568 101.691C86.3842 101.776 86.4692 101.861 86.5967 101.946C86.6816 102.031 86.7666 102.116 86.8516 102.201C86.8516 102.413 86.979 102.583 87.149 102.668C88.806 103.858 88.7635 105.557 88.5935 107.299C88.2961 110.528 88.2112 113.799 88.1262 117.071C87.7863 126.503 87.8713 135.935 87.9137 145.367C87.9137 145.749 87.8713 146.132 87.9562 146.472C88.2961 147.619 87.6588 147.576 86.8941 147.364C85.7469 147.109 84.5998 146.854 83.4102 146.599C83.4526 139.886 83.4526 133.173 83.4951 126.503C83.75 125.101 83.6226 123.656 83.6226 122.254C83.7076 120.342 83.7501 118.473 83.835 116.561C83.835 116.136 83.8775 115.711 83.8775 115.329C83.9625 113.757 84.005 112.185 84.0899 110.613C84.0899 110.358 84.0899 110.103 84.1324 109.848C84.2174 108.446 84.3024 107.044 84.3449 105.642C84.3449 105.387 84.3449 105.132 84.3874 104.877C84.4723 103.815 84.5148 102.71 84.5998 101.648C84.6423 101.308 84.6423 100.926 84.6848 100.586C84.6848 100.161 84.9397 100.374 85.1096 100.459Z" fill="#FDFDFE"/>
<path d="M147.947 66.8518C150.242 66.9793 152.493 67.3617 154.703 67.8715C153.258 68.1264 151.899 67.9565 150.496 67.4891C149.689 67.1917 148.67 67.7865 147.947 66.8518Z" fill="#7F93CF"/>
<path d="M129.126 64.0476C131.293 64.515 133.502 64.4725 135.626 65.1523C133.545 65.1947 131.463 64.8548 129.466 64.3875C129.296 64.345 129.211 64.1326 129.126 64.0476Z" fill="#7F93CF"/>
<path d="M121.181 62.8577C123.178 63.1551 125.132 63.41 127.129 63.7074C126.237 64.3447 125.302 63.7499 124.41 63.6224C123.305 63.495 122.115 63.5799 121.181 62.8577Z" fill="#7F93CF"/>
<path d="M203.647 96.2099C203.732 94.213 203.817 92.2586 203.902 90.2617C204.412 92.1311 204.072 94.0855 204.03 95.9549C204.03 96.0399 203.775 96.1249 203.647 96.2099Z" fill="#7F93CF"/>
<path d="M114.68 61.8806C116.635 61.9231 118.504 62.4754 120.416 62.6879C119.694 63.2827 119.014 62.7728 118.334 62.6454C117.059 62.4754 115.785 62.4754 114.68 61.8806Z" fill="#7F93CF"/>
<path d="M207.344 139.164C207.301 137.167 207.301 135.17 207.259 133.173C207.726 133.513 207.599 133.981 207.556 134.405C207.471 136.02 207.896 137.634 207.344 139.164Z" fill="#7F93CF"/>
<path d="M203.647 102.668C203.647 100.926 203.647 99.1838 203.647 97.4844C204.03 99.1838 204.03 100.926 203.647 102.668Z" fill="#7F93CF"/>
<path d="M136.051 65.1523C137.028 65.1523 137.963 65.2798 138.855 65.6622C137.878 65.6622 136.774 66.4269 136.051 65.1523Z" fill="#7F93CF"/>
<path d="M139.833 40.3824C138.473 40.3824 137.113 40.3824 135.754 40.3824C137.113 39.8725 138.473 39.8725 139.833 40.3824Z" fill="#7F93CF"/>
<path d="M140.767 65.9168C141.404 65.8743 142.042 65.7044 142.594 66.1293C141.999 65.8743 141.277 67.0215 140.767 65.9168Z" fill="#7F93CF"/>
<path d="M149.944 57.972C150.497 57.8445 151.007 57.8445 151.474 58.2269C151.007 58.1419 150.412 58.3969 149.944 57.972Z" fill="#7F93CF"/>
<path d="M145.993 66.6392C146.545 66.4692 147.055 66.5117 147.523 66.8941C147.013 66.8091 146.461 67.1065 145.993 66.6392Z" fill="#7F93CF"/>
<path d="M153.428 58.4391C153.981 58.2692 154.49 58.3117 154.958 58.6516C154.448 58.6516 153.896 58.9065 153.428 58.4391Z" fill="#7F93CF"/>
<path d="M127.384 63.7075C127.809 63.7925 128.191 63.835 128.616 63.92C128.106 64.2598 127.681 64.4298 127.384 63.7075Z" fill="#7F93CF"/>
<path d="M148.458 57.7169C148.882 57.7169 149.392 57.547 149.732 57.9718C149.307 57.8869 148.84 58.1418 148.458 57.7169Z" fill="#7F93CF"/>
<path d="M151.941 58.1841C152.366 58.2266 152.876 58.0142 153.258 58.439C152.791 58.3966 152.281 58.6515 151.941 58.1841Z" fill="#7F93CF"/>
<path d="M139.28 65.662C139.705 65.662 140.215 65.4496 140.555 65.8744C140.13 65.8319 139.663 66.0869 139.28 65.662Z" fill="#7F93CF"/>
<path d="M79.459 88.2649C79.6289 88.2649 79.8839 88.2224 79.9263 88.4773C79.6714 88.6472 79.544 88.4773 79.459 88.2649Z" fill="#FEFEFE"/>
<path d="M79.9263 88.9871C80.0962 89.1145 80.2237 89.2845 80.2237 89.4969C79.9688 89.4119 79.9263 89.1995 79.9263 88.9871Z" fill="#7F93CF"/>
<path d="M150.667 168.735C150.751 168.48 150.964 168.48 151.176 168.48C151.091 168.692 150.921 168.735 150.667 168.735Z" fill="#7F93CF"/>
<path d="M150.114 168.947C150.242 168.735 150.454 168.692 150.709 168.692C150.582 168.99 150.369 168.99 150.114 168.947Z" fill="#7F93CF"/>
<path d="M120.629 136.7C120.714 136.105 121.054 136.275 121.436 136.36C127.257 137.549 133.035 138.696 138.856 139.886C143.189 140.736 147.48 141.628 151.814 142.435C152.494 142.563 152.749 142.775 152.706 143.455C152.664 144.262 152.706 145.112 152.706 146.089C150.327 145.579 147.99 145.154 145.696 144.645C137.793 142.945 129.933 141.161 121.988 139.589C120.501 139.291 120.629 138.484 120.629 137.507C120.629 137.209 120.629 136.955 120.629 136.7Z" fill="#FDFDFE"/>
<path d="M154.83 100.501C152.791 98.2067 150.964 95.9974 149.222 93.6606C150.284 93.2358 151.219 93.7881 152.154 93.7881C153.131 93.8306 154.066 94.128 155.043 94.213C155.68 94.2555 155.68 94.5529 155.595 95.0202C155.213 96.7622 155 98.5041 154.83 100.501Z" fill="#FDFDFE"/>
<path d="M126.11 143.965C125.77 143.88 125.387 144.05 125.09 143.71C125.472 143.668 125.855 143.498 126.11 143.965Z" fill="#8598D4"/>
<path d="M123.858 143.455C123.475 143.37 123.093 143.498 122.795 143.2C123.178 143.2 123.603 142.988 123.858 143.455Z" fill="#8598D4"/>
<path d="M132.567 145.452C132.227 145.367 131.845 145.537 131.547 145.197C131.93 145.197 132.312 145.027 132.567 145.452Z" fill="#8598D4"/>
<path d="M127.086 144.178C126.917 144.178 126.789 144.135 126.619 144.135C126.747 143.965 126.917 143.88 127.086 143.923C127.256 144.008 127.171 144.093 127.086 144.178Z" fill="#8598D4"/>
<path d="M125.089 143.71C124.835 143.668 124.622 143.668 124.367 143.625C124.665 143.37 124.877 143.285 125.089 143.71Z" fill="#8598D4"/>
<path d="M131.547 145.197C131.293 145.155 131.08 145.155 130.825 145.112C131.123 144.857 131.335 144.815 131.547 145.197Z" fill="#8598D4"/>
<path d="M104.781 144.645C104.568 144.9 104.271 144.9 104.016 144.942C104.186 144.602 104.483 144.645 104.781 144.645Z" fill="#8598D4"/>
<path d="M128.361 144.475C128.106 144.432 127.851 144.39 127.596 144.39C127.894 144.05 128.149 144.092 128.361 144.475Z" fill="#8598D4"/>
<path d="M102.784 115.796C102.869 115.966 102.997 116.136 103.082 116.264C102.827 116.221 102.784 116.009 102.784 115.796Z" fill="#8598D4"/>
<path d="M90.6754 150.126C90.5479 150.338 90.3355 150.381 90.123 150.381C90.208 150.168 90.4204 150.126 90.6754 150.126Z" fill="#8598D4"/>
<path d="M105.503 119.025C105.673 119.153 105.801 119.28 105.801 119.493C105.546 119.45 105.503 119.238 105.503 119.025Z" fill="#8598D4"/>
<path d="M108.223 122.254C108.393 122.382 108.52 122.509 108.52 122.722C108.265 122.679 108.265 122.467 108.223 122.254Z" fill="#8598D4"/>
<path d="M109.709 123.996C109.879 124.124 110.007 124.251 110.007 124.464C109.752 124.421 109.752 124.209 109.709 123.996Z" fill="#8598D4"/>
<path d="M87.1065 102.711C86.9365 102.583 86.8091 102.456 86.8091 102.243C87.064 102.286 87.1065 102.456 87.1065 102.711Z" fill="#8598D4"/>
<path d="M90.123 100.926C90.2505 101.096 90.378 101.266 90.5054 101.393C90.1655 101.351 90.123 101.138 90.123 100.926Z" fill="#8598D4"/>
<path d="M95.8164 107.639C95.9439 107.809 96.0713 107.936 96.1988 108.106C95.9014 108.064 95.8164 107.894 95.8164 107.639Z" fill="#8598D4"/>
<path d="M99.8101 112.312C99.98 112.44 100.107 112.567 100.107 112.822C99.8101 112.737 99.8101 112.525 99.8101 112.312Z" fill="#8598D4"/>
<path d="M133.545 145.664C133.375 145.664 133.205 145.622 133.077 145.622C133.247 145.367 133.417 145.41 133.545 145.664Z" fill="#8598D4"/>
<path d="M94.3291 105.897C94.4566 106.067 94.584 106.237 94.7115 106.364C94.4141 106.322 94.3291 106.109 94.3291 105.897Z" fill="#8598D4"/>
<path d="M89.9957 150.423C89.8258 150.635 89.5708 150.635 89.3584 150.678C89.4859 150.423 89.6983 150.381 89.9957 150.423Z" fill="#8598D4"/>
<path d="M97.0483 109.083C97.2183 109.211 97.3458 109.338 97.3458 109.551C97.0908 109.508 97.0483 109.338 97.0483 109.083Z" fill="#8598D4"/>
<path d="M98.5356 110.825C98.7056 110.953 98.8331 111.08 98.8331 111.293C98.5781 111.25 98.5781 111.038 98.5356 110.825Z" fill="#8598D4"/>
<path d="M92.8423 104.112C93.0122 104.24 93.1397 104.367 93.1397 104.58C92.8848 104.537 92.8423 104.367 92.8423 104.112Z" fill="#8598D4"/>
<path d="M101.297 114.054C101.467 114.182 101.594 114.309 101.594 114.522C101.297 114.479 101.297 114.267 101.297 114.054Z" fill="#8598D4"/>
<path d="M103.039 116.306C103.124 116.391 103.251 116.476 103.336 116.561C103.251 116.476 103.167 116.391 103.039 116.306Z" fill="#8598D4"/>
<path d="M105.801 119.535C105.886 119.62 106.013 119.705 106.098 119.79C105.971 119.705 105.886 119.62 105.801 119.535Z" fill="#8598D4"/>
<path d="M110.007 124.464C110.092 124.549 110.219 124.634 110.304 124.719C110.219 124.676 110.134 124.591 110.007 124.464Z" fill="#8598D4"/>
<path d="M104.313 117.666C104.441 117.793 104.526 117.878 104.653 118.005C104.441 118.005 104.313 117.878 104.313 117.666Z" fill="#8598D4"/>
<path d="M88.5938 99.354C88.7637 99.354 88.8487 99.4815 88.8912 99.6514C88.8062 99.5664 88.7212 99.439 88.5938 99.354Z" fill="#8598D4"/>
<path d="M108.52 122.764C108.605 122.849 108.732 122.934 108.817 123.019C108.732 122.934 108.647 122.849 108.52 122.764Z" fill="#8598D4"/>
<path d="M107.033 120.81C107.075 120.852 107.118 120.895 107.075 120.98C107.033 120.98 106.948 120.98 106.905 120.937C106.948 120.895 106.99 120.852 107.033 120.81Z" fill="#8598D4"/>
<path d="M88.8911 99.6514C88.9761 99.7363 89.1035 99.8213 89.1885 99.9063C89.1035 99.8213 89.0186 99.7363 88.8911 99.6514Z" fill="#8598D4"/>
<path d="M101.552 114.564C101.637 114.649 101.765 114.734 101.85 114.819C101.765 114.734 101.68 114.649 101.552 114.564Z" fill="#8598D4"/>
<path d="M117.485 92.2162C117.06 92.1737 116.592 92.3862 116.21 92.0038C116.635 92.0038 117.102 91.7914 117.485 92.2162Z" fill="#7F93CF"/>
</svg>
